<svg width="14" height="20" viewBox="0 0 14 20" fill="none" xmlns="http://www.w3.org/2000/svg">
<path d="M11.7818 0H2.21825C1.11327 0 0.214294 0.825937 0.214294 1.84113V16.9036C0.214294 17.7043 0.778623 18.4027 1.58049 18.6495V19.4141C1.58049 19.7377 1.86604 20 2.21825 20C2.57046 20 2.856 19.7377 2.856 19.4141V18.7448H11.144V19.4141C11.144 19.7377 11.4296 20 11.7818 20C12.134 20 12.4195 19.7377 12.4195 19.4141V18.6495C13.2213 18.4027 13.7857 17.7045 13.7857 16.9036V1.84113C13.7857 0.825937 12.8867 0 11.7818 0V0ZM12.5102 16.9036C12.5102 17.0798 12.4325 17.2522 12.2969 17.3767C12.1592 17.5032 11.9762 17.5729 11.7818 17.5729H2.21825C2.02382 17.5729 1.84087 17.5032 1.70311 17.3767C1.56757 17.2522 1.4898 17.0798 1.4898 16.9036V8.07551H12.5102V16.9036ZM12.5102 6.90363H1.4898V1.84113C1.4898 1.47211 1.81659 1.17188 2.21825 1.17188H11.7818C12.1834 1.17188 12.5102 1.47211 12.5102 1.84113V6.90363Z" fill="#FDFDFD"/>
<path d="M3.5047 2.50977C3.18111 2.50977 2.91876 2.77211 2.91876 3.0957V4.97852C2.91876 5.30211 3.18111 5.56445 3.5047 5.56445C3.82829 5.56445 4.09064 5.30211 4.09064 4.97852V3.0957C4.09064 2.77207 3.82829 2.50977 3.5047 2.50977V2.50977Z" fill="#FDFDFD"/>
<path d="M3.5047 14.3516C3.82829 14.3516 4.09064 14.0892 4.09064 13.7656V10C4.09064 9.67641 3.82829 9.41406 3.5047 9.41406C3.18111 9.41406 2.91876 9.67641 2.91876 10V13.7656C2.91876 14.0892 3.18107 14.3516 3.5047 14.3516Z" fill="#FDFDFD"/>
</svg>
