<svg width="12" height="12" viewBox="0 0 12 12" fill="none" xmlns="http://www.w3.org/2000/svg">
<path d="M11.3 12C11.4111 12 11.5278 11.9973 11.65 11.992C11.7722 11.9862 11.8889 11.9778 12 11.9667V8.06667L8.66667 7.4L6.73333 9.33333C5.88889 8.82222 5.11378 8.21667 4.408 7.51667C3.70267 6.81667 3.11667 6.06667 2.65 5.26667L4.55 3.35L3.93333 0H0.0333328C0.0111103 0.111111 0 0.227778 0 0.35V0.7C0 2.13333 0.319555 3.53044 0.958666 4.89133C1.59733 6.25267 2.44178 7.46111 3.492 8.51667C4.54178 9.57222 5.74711 10.4167 7.108 11.05C8.46933 11.6833 9.86667 12 11.3 12Z" fill="#FFC01F"/>
</svg>
