<svg width="14" height="11" viewBox="0 0 14 11" fill="none" xmlns="http://www.w3.org/2000/svg">
<g filter="url(#filter0_b_721_455)">
<path d="M14 1.37621C14 1.74121 13.8658 2.09125 13.6268 2.34934L5.99223 10.5962C5.87403 10.7242 5.73362 10.8258 5.57903 10.895C5.42444 10.9643 5.25872 11 5.09135 11C4.92398 11 4.75825 10.9643 4.60366 10.895C4.44908 10.8258 4.30866 10.7242 4.19046 10.5962L0.373158 6.47277C0.254852 6.34498 0.161007 6.19326 0.0969805 6.02629C0.0329539 5.85932 0 5.68037 0 5.49964C0 5.31891 0.0329539 5.13996 0.0969805 4.97299C0.161007 4.80602 0.254852 4.6543 0.373158 4.52651C0.491464 4.39872 0.631913 4.29735 0.786487 4.22819C0.941061 4.15902 1.10673 4.12343 1.27404 4.12343C1.44135 4.12343 1.60702 4.15902 1.7616 4.22819C1.91617 4.29735 2.05662 4.39872 2.17493 4.52651L5.09135 7.67956L11.8251 0.403083C12.064 0.144993 12.3881 0 12.726 0C13.0639 0 13.3879 0.144993 13.6268 0.403083C13.8658 0.661173 14 1.01122 14 1.37621Z" fill="#E9E8FF"/>
</g>
<defs>
<filter id="filter0_b_721_455" x="-30" y="-30" width="74" height="71" filterUnits="userSpaceOnUse" color-interpolation-filters="sRGB">
<feFlood flood-opacity="0" result="BackgroundImageFix"/>
<feGaussianBlur in="BackgroundImageFix" stdDeviation="15"/>
<feComposite in2="SourceAlpha" operator="in" result="effect1_backgroundBlur_721_455"/>
<feBlend mode="normal" in="SourceGraphic" in2="effect1_backgroundBlur_721_455" result="shape"/>
</filter>
</defs>
</svg>
