<svg width="14" height="12" viewBox="0 0 14 12" fill="none" xmlns="http://www.w3.org/2000/svg">
<path d="M1.66634 11.3327C1.29967 11.3327 0.985897 11.2022 0.725008 10.9413C0.463675 10.68 0.333008 10.366 0.333008 9.99935V1.99935C0.333008 1.63268 0.463675 1.3189 0.725008 1.05802C0.985897 0.796682 1.29967 0.666016 1.66634 0.666016H12.333C12.6997 0.666016 13.0137 0.796682 13.275 1.05802C13.5359 1.3189 13.6663 1.63268 13.6663 1.99935V9.99935C13.6663 10.366 13.5359 10.68 13.275 10.9413C13.0137 11.2022 12.6997 11.3327 12.333 11.3327H1.66634ZM6.99967 6.54935C7.05523 6.54935 7.11345 6.5409 7.17434 6.52402C7.23567 6.50757 7.29412 6.48268 7.34967 6.44935L12.0663 3.49935C12.1552 3.44379 12.2219 3.37446 12.2663 3.29135C12.3108 3.20779 12.333 3.11602 12.333 3.01602C12.333 2.79379 12.2386 2.62713 12.0497 2.51602C11.8608 2.4049 11.6663 2.41046 11.4663 2.53268L6.99967 5.33268L2.53301 2.53268C2.33301 2.41046 2.13856 2.40757 1.94967 2.52402C1.76079 2.6409 1.66634 2.8049 1.66634 3.01602C1.66634 3.12713 1.68856 3.22424 1.73301 3.30735C1.77745 3.3909 1.84412 3.4549 1.93301 3.49935L6.64967 6.44935C6.70523 6.48268 6.76367 6.50757 6.82501 6.52402C6.8859 6.5409 6.94412 6.54935 6.99967 6.54935Z" fill="#FFC01F"/>
</svg>
