<svg width="12" height="14" viewBox="0 0 12 14" fill="none" xmlns="http://www.w3.org/2000/svg">
<path d="M6.00033 7.00065C6.36699 7.00065 6.68099 6.86998 6.94233 6.60865C7.20321 6.34776 7.33366 6.03398 7.33366 5.66732C7.33366 5.30065 7.20321 4.98665 6.94233 4.72532C6.68099 4.46443 6.36699 4.33398 6.00033 4.33398C5.63366 4.33398 5.31988 4.46443 5.05899 4.72532C4.79766 4.98665 4.66699 5.30065 4.66699 5.66732C4.66699 6.03398 4.79766 6.34776 5.05899 6.60865C5.31988 6.86998 5.63366 7.00065 6.00033 7.00065ZM6.00033 13.4173C5.91144 13.4173 5.82255 13.4007 5.73366 13.3673C5.64477 13.334 5.56699 13.2895 5.50033 13.234C3.8781 11.8007 2.66699 10.4702 1.86699 9.24265C1.06699 8.01465 0.666992 6.86732 0.666992 5.80065C0.666992 4.13398 1.20321 2.80621 2.27566 1.81732C3.34766 0.828429 4.58921 0.333984 6.00033 0.333984C7.41144 0.333984 8.65299 0.828429 9.72499 1.81732C10.7974 2.80621 11.3337 4.13398 11.3337 5.80065C11.3337 6.86732 10.9337 8.01465 10.1337 9.24265C9.33366 10.4702 8.12255 11.8007 6.50033 13.234C6.43366 13.2895 6.35588 13.334 6.26699 13.3673C6.1781 13.4007 6.08921 13.4173 6.00033 13.4173Z" fill="#FFC01F"/>
</svg>
