<svg width="14" height="13" viewBox="0 0 14 13" fill="none" xmlns="http://www.w3.org/2000/svg">
<path d="M13.1891 4.51641L9.2219 3.93985L7.44847 0.344537C7.40003 0.2461 7.32034 0.166412 7.2219 0.117975C6.97503 -0.00390046 6.67503 0.097662 6.55159 0.344537L4.77815 3.93985L0.810967 4.51641C0.701592 4.53204 0.601592 4.5836 0.525029 4.66172C0.432469 4.75686 0.381465 4.88485 0.383223 5.01757C0.384981 5.15029 0.439357 5.27689 0.534404 5.36954L3.40472 8.16797L2.72659 12.1195C2.71069 12.2115 2.72086 12.306 2.75595 12.3924C2.79105 12.4789 2.84966 12.5537 2.92514 12.6086C3.00062 12.6634 3.08995 12.696 3.183 12.7026C3.27605 12.7092 3.3691 12.6897 3.45159 12.6461L7.00003 10.7805L10.5485 12.6461C10.6453 12.6977 10.7578 12.7148 10.8657 12.6961C11.1375 12.6492 11.3203 12.3914 11.2735 12.1195L10.5953 8.16797L13.4657 5.36954C13.5438 5.29297 13.5953 5.19297 13.611 5.0836C13.6532 4.81016 13.4625 4.55704 13.1891 4.51641Z" fill="#FFC702"/>
</svg>
