<svg width="14" height="14" viewBox="0 0 14 14" fill="none" xmlns="http://www.w3.org/2000/svg">
<path d="M5.66667 8H10.6667V6.66667H7L5.66667 8ZM2.66667 8H4.3L8.23333 4.1C8.3 4.03333 8.33333 3.95 8.33333 3.85C8.33333 3.75 8.3 3.66667 8.23333 3.6L7.06667 2.43333C7 2.36667 6.91667 2.33333 6.81667 2.33333C6.71667 2.33333 6.63333 2.36667 6.56667 2.43333L2.66667 6.36667V8ZM0 13.3333V1.33333C0 0.966667 0.130667 0.652667 0.392 0.391333C0.652889 0.130444 0.966667 0 1.33333 0H12C12.3667 0 12.6807 0.130444 12.942 0.391333C13.2029 0.652667 13.3333 0.966667 13.3333 1.33333V9.33333C13.3333 9.7 13.2029 10.014 12.942 10.2753C12.6807 10.5362 12.3667 10.6667 12 10.6667H2.66667L0 13.3333Z" fill="#FFC702"/>
</svg>
