<svg width="10" height="11" viewBox="0 0 10 11" fill="none" xmlns="http://www.w3.org/2000/svg">
<path d="M2.22425 1.20395L2.22331 1.20489L0.976607 2.45042C0.976407 2.45062 0.976208 2.45082 0.976007 2.45102C0.739178 2.68983 0.632032 3.02651 0.68505 3.34979C0.929759 4.81989 1.71326 6.29321 2.9112 7.49003C4.11088 8.6886 5.58543 9.47287 7.05 9.71407L7.05 9.71405L7.05442 9.71482C7.10621 9.72382 7.15955 9.72852 7.21719 9.72852C7.49071 9.72852 7.75784 9.61787 7.94924 9.42568L7.94996 9.42496L9.19566 8.17926C9.28161 8.09331 9.32812 7.98126 9.32812 7.86016L9.32812 7.85957C9.32819 7.80052 9.31658 7.74204 9.29397 7.68749C9.27135 7.63294 9.23817 7.5834 9.19633 7.54172L9.19597 7.54136L7.85183 6.19956L7.85152 6.19926C7.76558 6.11331 7.65352 6.0668 7.53242 6.0668L7.5323 6.0668C7.47339 6.06678 7.41505 6.07841 7.36064 6.10101C7.30624 6.12361 7.25683 6.15673 7.21526 6.19848L7.21449 6.19926L6.23246 7.18129L5.98705 7.4267L5.67132 7.2826C5.11017 7.02651 4.59978 6.67138 4.16462 6.23423C3.72833 5.79885 3.37432 5.28819 3.11967 4.72689L2.97662 4.41159L3.22145 4.16676L4.20348 3.18473C4.28942 3.09878 4.33594 2.98673 4.33594 2.86563V2.86551C4.33595 2.80659 4.32432 2.74826 4.30173 2.69385C4.27913 2.63944 4.246 2.59003 4.20425 2.54847L4.20348 2.54769L2.86051 1.20473C2.77456 1.11878 2.66251 1.07227 2.5414 1.07227L2.54128 1.07227C2.48237 1.07225 2.42403 1.08388 2.36963 1.10648C2.31522 1.12907 2.26582 1.1622 2.22425 1.20395Z" stroke="#07162D"/>
</svg>
