<svg width="546" height="561" viewBox="0 0 546 561" fill="none" xmlns="http://www.w3.org/2000/svg">
<g clip-path="url(#clip0_71_9)">
<g opacity="0.4" filter="url(#filter0_f_71_9)">
<circle cx="273.5" cy="259.5" r="242.5" fill="url(#paint0_radial_71_9)"/>
</g>
<circle cx="413.5" cy="375.5" r="132.5" fill="#F2FAFF"/>
<circle cx="92" cy="175" r="92" fill="#F2FAFF"/>
<path d="M424.056 336.43H427.169V357.967H424.056V336.43Z" fill="#374169"/>
<path d="M273.741 320.449H435.57V531.61H273.741V320.449Z" fill="#BCD6FB"/>
<path d="M354.656 257.924C356.055 257.924 357.397 258.48 358.386 259.47C359.375 260.46 359.931 261.803 359.931 263.203V303.175H349.512V263.203C349.511 261.825 350.049 260.502 351.01 259.516C351.971 258.53 353.279 257.958 354.656 257.924Z" fill="#A4CDFF"/>
<path d="M348.8 273.561H360.511V276.53H348.8V273.561Z" fill="#0B065A"/>
<path d="M271.077 294.848H438.221V320.449H271.077V294.848Z" fill="white"/>
<path d="M273.741 368.908H435.57V373.197H273.741V368.908Z" fill="#A4CDFF"/>
<path d="M273.741 437.598H435.57V441.887H273.741V437.598Z" fill="#A4CDFF"/>
<path d="M341.467 373.197H367.831V379.941H341.467V373.197Z" fill="#86BCF2"/>
<path d="M341.467 320.449H367.831V327.193H341.467V320.449Z" fill="#86BCF2"/>
<path d="M341.467 441.885H367.831V448.628H341.467V441.885Z" fill="#86BCF2"/>
<path d="M352.202 294.848H394.908V313.811H352.202V294.848Z" fill="white"/>
<path d="M427.169 231.227C426.918 248.752 408.124 279.527 399.353 287.59L386.692 272.903C390.213 266.898 400.158 235.543 397.638 231.584C395.119 227.625 389.316 217.067 384.186 208.872C393.223 205.308 401.651 200.357 409.166 194.197C414.349 203.923 427.248 226.16 427.169 231.227Z" fill="url(#paint1_linear_71_9)"/>
<path d="M171.724 245.018L184.847 243.592C184.923 243.586 184.996 243.564 185.064 243.528C185.131 243.493 185.19 243.444 185.238 243.385C185.286 243.326 185.322 243.257 185.343 243.184C185.364 243.111 185.37 243.034 185.361 242.959V242.339C185.348 242.201 185.284 242.073 185.181 241.98C185.079 241.887 184.945 241.836 184.807 241.837L172.528 241.56C171.916 241.555 171.328 241.318 170.883 240.897C170.437 240.476 170.168 239.902 170.128 239.29C170.115 238.965 170.169 238.642 170.286 238.338C170.403 238.035 170.58 237.759 170.807 237.527C171.034 237.294 171.307 237.111 171.607 236.988C171.907 236.864 172.23 236.803 172.555 236.809C172.555 236.809 191.283 236.215 194.211 235.885L189.766 230.607C189.282 230.21 188.974 229.639 188.908 229.017C188.843 228.395 189.025 227.772 189.416 227.283C189.807 226.795 190.375 226.48 190.996 226.408C191.617 226.336 192.242 226.512 192.734 226.898L205.672 235.028C206.332 235.569 206.516 237.258 206.345 238.67C208.983 252.434 209.194 254.506 209.55 258.346L194.633 259.468C190.327 259.785 186.116 260.89 182.209 262.727L181.22 263.176C180.925 263.313 180.604 263.387 180.279 263.394C179.953 263.401 179.63 263.341 179.329 263.217C179.028 263.093 178.756 262.908 178.53 262.674C178.304 262.44 178.128 262.162 178.015 261.857C177.807 261.276 177.827 260.638 178.072 260.071C178.317 259.505 178.768 259.053 179.334 258.808L186.443 255.469C186.553 255.421 186.645 255.339 186.705 255.234C186.764 255.129 186.788 255.008 186.772 254.889C186.762 254.805 186.734 254.724 186.69 254.653C186.646 254.581 186.587 254.52 186.516 254.473C186.446 254.427 186.366 254.396 186.283 254.384C186.2 254.371 186.115 254.377 186.034 254.4L174.955 257.884C174.672 258.001 174.365 258.048 174.06 258.021C173.755 257.994 173.461 257.894 173.202 257.73C172.944 257.566 172.728 257.342 172.574 257.077C172.42 256.812 172.332 256.514 172.317 256.208C172.267 255.535 172.441 254.863 172.81 254.298C173.18 253.733 173.725 253.305 174.362 253.081L185.665 249.517C185.791 249.478 185.9 249.396 185.972 249.286C186.044 249.175 186.075 249.042 186.06 248.91V248.713C186.054 248.637 186.032 248.564 185.996 248.497C185.96 248.43 185.911 248.372 185.852 248.325C185.793 248.278 185.724 248.243 185.651 248.224C185.578 248.204 185.502 248.2 185.427 248.211L172.383 249.623C171.78 249.691 171.174 249.529 170.685 249.169C170.197 248.81 169.861 248.279 169.746 247.683C169.662 247.068 169.822 246.445 170.192 245.947C170.562 245.449 171.111 245.115 171.724 245.018Z" fill="#FE9F73"/>
<path d="M289.37 188.641L314.93 207.472C314.93 207.472 299.617 240.596 292.772 247.062C285.927 253.529 208.191 258.478 208.191 258.478L204.314 234.248L268.228 219.31L289.37 188.641Z" fill="url(#paint2_linear_71_9)"/>
<path d="M304.733 533.728L322.895 535.418L321.236 505.602L303.28 507.044L304.733 533.728Z" fill="#FE9F73"/>
<path d="M281.484 540.393L284.61 540.393L299.118 531.498L307.031 540.393L326.643 540.393C326.761 540.394 326.877 540.419 326.985 540.466C327.093 540.513 327.191 540.58 327.273 540.665C327.355 540.749 327.42 540.849 327.463 540.959C327.507 541.068 327.529 541.185 327.527 541.303L327.527 544.352C327.527 544.514 327.463 544.67 327.35 544.786C327.236 544.902 327.082 544.968 326.92 544.972L281.326 544.972C280.749 544.919 280.213 544.65 279.826 544.218C279.439 543.787 279.23 543.225 279.24 542.646C279.25 542.066 279.479 541.512 279.88 541.094C280.282 540.676 280.826 540.425 281.405 540.393L281.484 540.393Z" fill="#383164"/>
<path d="M287.247 536.342L303.905 528.754C310.605 535.458 318.215 529.928 318.215 529.928C319.537 529.231 321.047 528.971 322.526 529.187C324.005 529.403 325.377 530.083 326.445 531.129L326.551 540.367L281.457 540.367C282.684 537.912 287.247 536.342 287.247 536.342Z" fill="#4425FF"/>
<path d="M324.612 537.409L322.488 538.874L322.304 538.597L324.427 537.119L324.612 537.409Z" fill="black"/>
<path d="M323.095 536.988L320.959 538.466L320.774 538.176L322.897 536.711L323.095 536.988Z" fill="black"/>
<path d="M369.731 517.147L369.915 517.424C367.891 518.848 365.478 519.613 363.004 519.614C362.662 519.639 362.318 519.639 361.975 519.614V519.284C364.732 519.515 367.481 518.757 369.731 517.147V517.147Z" fill="black"/>
<path d="M356.931 533.905L376.582 535.307L375.266 505.424L355.788 507.161L356.931 533.905Z" fill="#FE9F73"/>
<path d="M336.878 540.393L340.004 540.393L354.512 531.498L362.425 540.393L382.037 540.393C382.155 540.394 382.271 540.419 382.379 540.466C382.488 540.513 382.585 540.58 382.667 540.665C382.75 540.749 382.814 540.849 382.858 540.959C382.901 541.068 382.923 541.185 382.921 541.303L382.921 544.352C382.921 544.514 382.857 544.67 382.744 544.786C382.631 544.902 382.476 544.968 382.314 544.972L336.72 544.972C336.143 544.919 335.607 544.65 335.22 544.219C334.833 543.787 334.624 543.225 334.634 542.646C334.644 542.066 334.873 541.512 335.274 541.094C335.676 540.676 336.22 540.425 336.799 540.393L336.878 540.393Z" fill="#383164"/>
<path d="M342.642 536.342L359.299 528.754C365.999 535.458 373.609 529.928 373.609 529.928C374.931 529.231 376.441 528.971 377.92 529.187C379.399 529.403 380.771 530.083 381.839 531.129L381.945 540.367L336.852 540.367C338.078 537.912 342.642 536.342 342.642 536.342Z" fill="#4425FF"/>
<path d="M380.006 537.409L377.883 538.874L377.698 538.597L379.821 537.119L380.006 537.409Z" fill="black"/>
<path d="M378.489 536.988L376.353 538.466L376.168 538.176L378.292 536.711L378.489 536.988Z" fill="black"/>
<path d="M318.095 517.147L318.28 517.424C316.255 518.846 313.843 519.611 311.369 519.614C311.026 519.64 310.683 519.64 310.34 519.614V519.284C313.097 519.515 315.846 518.757 318.095 517.147V517.147Z" fill="black"/>
<path d="M377.341 164.491C380.731 165.686 383.719 167.807 385.966 170.614C385.996 170.643 386.019 170.678 386.035 170.717C386.051 170.755 386.059 170.797 386.059 170.838C386.059 170.88 386.051 170.921 386.035 170.96C386.019 170.998 385.996 171.033 385.966 171.063C385.903 171.088 385.832 171.088 385.768 171.063C385.72 171.062 385.673 171.051 385.63 171.031C385.587 171.01 385.548 170.981 385.518 170.944C383.336 168.258 380.463 166.219 377.209 165.045C377.129 165.015 377.063 164.957 377.024 164.881C376.985 164.805 376.976 164.718 376.998 164.636C377.032 164.578 377.084 164.534 377.146 164.507C377.207 164.481 377.275 164.476 377.341 164.491Z" fill="#21111D"/>
<path d="M376.734 167.5C380.122 168.7 383.109 170.82 385.36 173.624C385.385 173.657 385.404 173.696 385.414 173.736C385.425 173.777 385.427 173.82 385.421 173.862C385.415 173.904 385.4 173.944 385.379 173.98C385.357 174.016 385.328 174.047 385.294 174.072C385.237 174.117 385.167 174.14 385.096 174.138C385.045 174.138 384.994 174.126 384.948 174.103C384.903 174.08 384.863 174.047 384.832 174.006C382.648 171.322 379.776 169.283 376.523 168.107C376.442 168.079 376.376 168.02 376.339 167.944C376.302 167.867 376.297 167.779 376.325 167.698C376.353 167.618 376.412 167.552 376.489 167.515C376.565 167.477 376.653 167.472 376.734 167.5V167.5Z" fill="#21111D"/>
<path d="M303.416 163.304C309.18 159.345 345.146 158.17 345.146 158.17C345.529 158.17 352.941 158.078 360.564 158.315H368.478H368.86C374.874 158.434 391.822 161.548 411.065 191.888C414.888 197.953 418.362 204.232 421.471 210.693C423.331 214.52 425.203 218.611 427.063 223.006C426.325 223.626 415.43 233.748 394.434 233.563C393.576 232.243 382.563 213.992 381.693 212.738L381.508 282.021L381.284 315.594C381.284 315.594 357.096 320.727 345.173 315.251C345.173 315.251 345.001 309.972 344.751 301.513H323.318C323.015 306.25 322.699 309.919 322.382 312.163C314.672 308.429 306.745 305.163 298.642 302.384C298.642 302.384 298.563 279.448 299.526 253.556C301.042 212.778 300.844 226.001 301.003 213.966L300.132 237.905C293.704 235.421 287.847 231.656 282.918 226.837C277.989 222.019 274.09 216.248 271.459 209.875C271.459 209.875 301.741 164.135 303.416 163.304Z" fill="#383162"/>
<path d="M327.948 519.008L337.773 408.564L338.433 410.148L328.818 519.826H328.462C325.591 520.226 322.695 520.416 319.797 520.393C311.98 520.511 304.223 519.019 297.006 516.012L297.389 515.141C310.644 521.106 325.481 519.364 327.948 519.008Z" fill="black"/>
<path d="M348.76 518.294C362.2 524.404 376.8 518.189 378.725 517.305C384.463 485.355 380.77 331.059 380.73 329.502C380.73 329.375 380.78 329.253 380.868 329.161C380.957 329.07 381.078 329.017 381.205 329.014V329.014C381.328 329.017 381.445 329.066 381.533 329.152C381.621 329.237 381.673 329.353 381.68 329.476C381.68 331.046 385.426 486.226 379.609 517.714V517.951L379.398 518.057C373.806 520.526 367.771 521.832 361.659 521.897C357.092 521.943 352.568 521.012 348.391 519.165C348.275 519.113 348.185 519.017 348.141 518.898C348.096 518.779 348.101 518.647 348.153 518.532C348.206 518.416 348.302 518.326 348.421 518.282C348.539 518.237 348.671 518.242 348.787 518.294H348.76Z" fill="black"/>
<path d="M320.865 112.76L347.111 111.639L347.679 136.633L347.388 143.073C347.388 143.073 349.077 156.27 348.43 158.909C347.784 161.549 343.775 167.091 336.455 167.012C334.402 166.998 332.364 166.664 330.414 166.022C326.945 164.874 324.321 165.006 324.809 161.377L326.589 147.996C320.193 147.006 320.575 139.682 320.575 139.682L320.865 112.76Z" fill="url(#paint3_linear_71_9)"/>
<path d="M338.591 128.583C338.62 128.61 338.643 128.643 338.658 128.679C338.674 128.716 338.682 128.755 338.682 128.794C338.682 128.834 338.674 128.873 338.658 128.909C338.643 128.946 338.62 128.978 338.591 129.006C338.533 129.06 338.459 129.092 338.38 129.098C338.296 129.088 338.217 129.051 338.156 128.992C338.011 128.834 334.344 125.033 330.928 127.673C330.869 127.728 330.792 127.759 330.711 127.759C330.63 127.759 330.552 127.728 330.493 127.673C330.464 127.646 330.441 127.613 330.426 127.577C330.41 127.54 330.402 127.501 330.402 127.462C330.402 127.422 330.41 127.383 330.426 127.347C330.441 127.31 330.464 127.278 330.493 127.25C334.397 124.189 338.551 128.53 338.591 128.583Z" fill="#4C222E"/>
<path d="M326.022 126.589C326.075 126.649 326.104 126.727 326.104 126.807C326.104 126.887 326.075 126.964 326.022 127.025C325.959 127.088 325.874 127.126 325.784 127.13C325.711 127.13 325.64 127.102 325.586 127.051C325.586 127.051 322.949 124.768 321.524 125.995C321.493 126.021 321.457 126.041 321.418 126.053C321.38 126.065 321.339 126.069 321.298 126.066C321.258 126.062 321.219 126.05 321.183 126.031C321.147 126.013 321.115 125.987 321.089 125.956C321.063 125.925 321.044 125.888 321.032 125.85C321.019 125.811 321.015 125.77 321.019 125.73C321.022 125.689 321.034 125.65 321.053 125.614C321.072 125.578 321.097 125.546 321.129 125.52C323.015 123.963 325.89 126.484 326.022 126.589Z" fill="#4C222E"/>
<path d="M333.104 129.348C333.287 129.348 333.466 129.402 333.619 129.504C333.771 129.606 333.889 129.752 333.958 129.921C334.028 130.091 334.045 130.277 334.009 130.457C333.972 130.636 333.883 130.801 333.752 130.929C333.622 131.058 333.456 131.145 333.276 131.179C333.096 131.213 332.91 131.193 332.742 131.121C332.573 131.049 332.43 130.929 332.33 130.775C332.23 130.621 332.178 130.442 332.181 130.258C332.184 130.016 332.283 129.784 332.456 129.614C332.629 129.443 332.862 129.348 333.104 129.348V129.348Z" fill="#4C222E"/>
<path d="M323.397 128.332C323.621 128.359 323.828 128.467 323.978 128.636C324.128 128.805 324.21 129.023 324.21 129.249C324.21 129.475 324.128 129.693 323.978 129.862C323.828 130.031 323.621 130.139 323.397 130.166C323.155 130.163 322.923 130.064 322.753 129.891C322.583 129.718 322.487 129.485 322.487 129.243C322.494 129.003 322.592 128.775 322.761 128.606C322.93 128.437 323.158 128.339 323.397 128.332V128.332Z" fill="#4C222E"/>
<path d="M345.964 109.777C345.964 109.777 353.007 109.513 354.906 116.309C356.805 123.105 354.115 126.642 354.022 128.661C353.93 130.68 355.17 144.326 345.608 143.178L343.26 120.638L346.689 111.704L345.964 109.777Z" fill="url(#paint4_linear_71_9)"/>
<path d="M345.265 124.584C346.353 124.595 347.414 124.928 348.313 125.542C349.211 126.156 349.908 127.023 350.314 128.033C350.72 129.043 350.818 130.152 350.594 131.217C350.371 132.283 349.836 133.258 349.059 134.02C348.281 134.782 347.294 135.295 346.225 135.496C345.155 135.697 344.05 135.575 343.049 135.147C342.049 134.719 341.198 134.003 340.604 133.091C340.01 132.178 339.699 131.11 339.712 130.021C339.73 128.564 340.324 127.173 341.365 126.154C342.406 125.135 343.809 124.57 345.265 124.584V124.584Z" fill="url(#paint5_linear_71_9)"/>
<path d="M345.027 127.671C345.858 127.297 346.798 127.246 347.665 127.526C347.683 127.532 347.7 127.541 347.715 127.554C347.73 127.566 347.741 127.582 347.75 127.599C347.759 127.616 347.764 127.635 347.765 127.654C347.766 127.673 347.764 127.692 347.758 127.71C347.752 127.73 347.742 127.749 347.728 127.764C347.715 127.78 347.698 127.793 347.68 127.801C347.661 127.81 347.64 127.815 347.62 127.815C347.599 127.815 347.579 127.811 347.56 127.803C346.757 127.552 345.891 127.598 345.12 127.935C344.604 128.231 344.208 128.698 343.999 129.254C344.428 128.973 344.93 128.824 345.443 128.824C345.956 128.824 346.458 128.973 346.887 129.254C347.289 129.519 347.59 129.913 347.741 130.37C347.892 130.828 347.884 131.323 347.718 131.775C347.589 132.253 347.309 132.677 346.919 132.981C346.529 133.286 346.05 133.455 345.555 133.464V133.464C345.515 133.461 345.479 133.443 345.452 133.413C345.425 133.384 345.41 133.346 345.41 133.306C345.41 133.286 345.414 133.266 345.422 133.247C345.43 133.229 345.442 133.212 345.457 133.198C345.472 133.185 345.489 133.174 345.509 133.168C345.528 133.161 345.548 133.159 345.568 133.161V133.161C345.999 133.154 346.416 133.006 346.754 132.738C347.093 132.471 347.334 132.1 347.441 131.683C347.585 131.292 347.592 130.865 347.463 130.47C347.334 130.075 347.075 129.735 346.729 129.505C346.276 129.23 345.745 129.115 345.219 129.177C344.693 129.239 344.204 129.476 343.827 129.848L343.432 130.231L343.577 129.703C343.656 129.279 343.826 128.877 344.077 128.526C344.328 128.175 344.652 127.883 345.027 127.671Z" fill="#F07162"/>
<path d="M341.506 141.977C341.506 141.977 340.939 154.236 325.679 155.173L326.642 147.981C326.642 147.981 336.494 150.106 341.506 141.977Z" fill="#F58F83"/>
<path d="M326.8 127.672C326.819 127.675 326.837 127.682 326.854 127.692C326.87 127.703 326.884 127.716 326.896 127.732C326.907 127.748 326.914 127.766 326.918 127.785C326.922 127.805 326.922 127.824 326.919 127.843L325.877 135.036L328.923 136.078C328.943 136.084 328.962 136.094 328.978 136.107C328.994 136.12 329.007 136.137 329.017 136.155C329.027 136.174 329.033 136.194 329.035 136.214C329.037 136.235 329.035 136.256 329.029 136.276C329.013 136.304 328.99 136.327 328.962 136.343C328.934 136.359 328.903 136.368 328.87 136.368V136.368L325.586 135.233L326.655 127.804C326.661 127.769 326.678 127.737 326.704 127.713C326.731 127.689 326.764 127.674 326.8 127.672V127.672Z" fill="#F07162"/>
<path d="M328.119 141.727C325.903 141.648 325.191 139.18 325.191 139.18C325.191 139.18 331.126 139.378 331.231 139.404C330.993 140.051 330.572 140.615 330.019 141.027C329.467 141.439 328.807 141.683 328.119 141.727V141.727Z" fill="#FBFDFC"/>
<path d="M315.273 103.443C319.23 103.575 324.69 104.446 328.805 102.598C332.92 100.75 341.704 99.444 345.318 104.023C348.932 108.603 352.308 111.215 345.397 115.438C345.397 115.438 328.752 123.106 318.847 114.119C308.942 105.132 311.343 103.297 315.273 103.443Z" fill="url(#paint6_linear_71_9)"/>
<path d="M298.919 279.434L299.262 262.08L343.946 282.931C343.946 282.931 338.67 437.491 328.304 519.522C328.304 519.522 314.798 524.088 297.428 515.972L298.642 293.818L298.919 279.434Z" fill="#4425FF"/>
<path d="M379.213 517.516C379.213 517.516 366.341 525.75 348.641 518.703L327.71 306.764L318.636 252.908L381.324 283.261C381.324 283.261 386.006 434.957 379.213 517.516Z" fill="url(#paint7_linear_71_9)"/>
<path d="M329.465 313.482L329.478 313.64L349.129 518.823L348.193 518.915L328.554 313.904L318.056 303.162L318.729 302.502L329.465 313.482Z" fill="black"/>
<path d="M366.117 158.328C366.117 158.328 354.524 271.899 382.432 279.606L354.893 280.807L299.038 271.476L299.526 250.164L300.62 215.958L302.097 186.094L305.408 162.34C305.408 162.34 310.235 160.505 312.886 160.73C310.182 176.591 308.793 192.649 308.732 208.739C308.732 208.739 342.443 210.23 354.893 209.307C354.893 209.307 357.412 167.42 358.454 158.301C358.454 158.301 364.204 157.589 366.117 158.328Z" fill="#4425FF"/>
<path d="M378.106 269.722C380.193 270.838 382.379 271.761 384.634 272.48L379.358 276.439C377.931 275.005 376.608 273.471 375.402 271.847C374.901 270.725 375.033 268.02 378.106 269.722Z" fill="#F07162"/>
<path d="M361.092 281.004C363.453 278.365 371.867 274.248 374.479 273.891C375.916 273.707 381.719 272.888 386.718 272.176C386.718 272.097 387.351 271.569 387.404 271.476L399.274 287.59L393.299 289.424C385.253 290.973 377.294 292.942 369.454 295.323V295.323C366.816 296.801 364.336 298.173 363.202 298.794C362.897 298.961 362.558 299.056 362.21 299.072C361.863 299.088 361.516 299.025 361.197 298.886C360.327 298.477 359.667 297.434 361.567 294.782C361.567 294.782 356.766 294.703 360.762 290.176C360.762 290.176 355.843 291.06 359.812 285.65C359.892 285.65 356.845 285.821 361.092 281.004Z" fill="url(#paint8_linear_71_9)"/>
<path d="M366.618 290.638H366.71C366.789 290.608 366.876 290.611 366.953 290.645C367.03 290.68 367.089 290.744 367.119 290.822C367.149 290.901 367.146 290.988 367.111 291.065C367.077 291.142 367.013 291.202 366.935 291.231C365.137 292.362 363.438 293.642 361.857 295.059C361.794 295.112 361.715 295.142 361.633 295.142C361.55 295.142 361.471 295.112 361.408 295.059C361.348 294.997 361.314 294.914 361.314 294.828C361.314 294.741 361.348 294.658 361.408 294.597C363.031 293.133 364.773 291.809 366.618 290.638Z" fill="#F07162"/>
<path d="M365.827 286.68H365.893C365.966 286.668 366.04 286.681 366.105 286.717C366.169 286.753 366.22 286.81 366.249 286.878C366.279 286.955 366.279 287.041 366.246 287.117C366.214 287.194 366.154 287.255 366.077 287.287C364.25 288.074 362.555 289.138 361.052 290.441C360.989 290.497 360.907 290.526 360.823 290.521C360.738 290.516 360.66 290.478 360.604 290.415C360.548 290.352 360.519 290.269 360.524 290.185C360.529 290.101 360.567 290.022 360.63 289.966C362.179 288.604 363.932 287.495 365.827 286.68Z" fill="#F07162"/>
<path d="M364.191 282.323H364.257C364.329 282.308 364.403 282.318 364.468 282.352C364.533 282.386 364.584 282.441 364.613 282.508C364.645 282.585 364.647 282.672 364.618 282.75C364.588 282.829 364.53 282.893 364.455 282.93C362.863 283.687 361.398 284.689 360.116 285.9C360.086 285.928 360.05 285.951 360.011 285.965C359.972 285.98 359.93 285.987 359.889 285.986C359.847 285.985 359.806 285.975 359.768 285.958C359.73 285.941 359.696 285.917 359.667 285.886C359.639 285.856 359.617 285.82 359.602 285.781C359.587 285.742 359.58 285.701 359.581 285.659C359.582 285.618 359.592 285.577 359.609 285.539C359.626 285.501 359.65 285.466 359.681 285.438C361.009 284.166 362.532 283.114 364.191 282.323V282.323Z" fill="#F07162"/>
<path d="M150.239 136.527C154.868 125.89 161.832 125.297 167.134 124.214C172.436 123.132 180.943 118.236 180.943 118.236C180.943 118.236 176.287 154.343 174.731 158.539C173.175 162.736 162.386 202.986 161.331 202.616C160.276 202.247 101.268 202.748 126.934 156.137C134.65 142.188 145.61 147.177 150.239 136.527Z" fill="url(#paint9_linear_71_9)"/>
<path d="M171.394 129.11C175.892 126.721 180.138 118.051 185.203 110.331C190.268 102.611 198.049 105.62 202.89 105.963C212.663 106.662 215.419 101.357 223.095 109.077C233.646 119.634 227.131 132.198 227.131 132.198C221.855 141.145 228.608 150.462 229.769 156.269C236.587 192.771 211.963 183.467 204.129 198.274C196.295 213.081 167.912 169.848 167.912 169.848C167.912 169.848 144.555 178.479 144.291 161.653C144.027 144.827 165.367 132.303 171.394 129.11Z" fill="url(#paint10_linear_71_9)"/>
<path d="M228.226 228.164C231.817 230.132 235.813 231.247 239.905 231.424C243.996 231.6 248.073 230.832 251.821 229.18C257.901 226.462 243.142 203.051 243.142 203.051L221.499 205.347L228.226 228.164Z" fill="#D85567"/>
<path d="M143.473 198.181L133.7 205.321C133.7 205.321 130.785 177.146 152.165 166.562C160.553 162.405 223.464 164.186 229.623 169.65C234.899 174.282 234.609 221.579 229.32 258.068C228.862 261.275 228.026 264.415 226.827 267.424L223.715 268.375C203.259 274.63 195.477 284.013 175.588 276.108L157.124 267.279C151.057 263.756 155.712 222.648 155.712 222.648L143.473 198.181Z" fill="#C80030"/>
<path d="M254.115 191.136C268.993 208.78 267.476 234.355 249.367 228.561C246.557 227.65 243.964 226.171 241.748 224.217C239.531 222.262 237.739 219.874 236.482 217.199C228.568 200.479 208.93 158.817 208.93 158.817L222.422 152.482C222.422 152.482 245.833 180.525 254.115 191.136Z" fill="url(#paint11_linear_71_9)"/>
<path d="M206.648 132.95C205.923 129.796 205.224 126.352 204.947 124.927C204.884 124.635 204.89 124.332 204.966 124.043C205.042 123.754 205.184 123.487 205.382 123.264C205.949 122.644 206.991 122.353 208.719 124.584C208.719 124.584 210.038 120.625 212.768 125.112C212.768 125.112 212.095 119.331 215.564 124.003C215.564 124.003 216.764 122.947 219.653 127.711C221.235 130.351 223.187 142.439 223.187 144.722C222.997 150.565 222.296 156.381 221.09 162.102C208.508 155.688 207.308 153.762 206.846 147.876C206.78 147.929 206.912 134.112 206.648 132.95Z" fill="#F9B498"/>
<path d="M208.613 124.386C208.68 124.358 208.755 124.356 208.824 124.38C208.892 124.405 208.949 124.454 208.983 124.518C209.757 126.222 210.388 127.988 210.869 129.797C210.874 129.827 210.874 129.859 210.869 129.889C210.869 129.963 210.84 130.033 210.788 130.085C210.736 130.137 210.665 130.166 210.592 130.166C210.518 130.166 210.448 130.137 210.396 130.085C210.344 130.033 210.315 129.963 210.315 129.889C209.841 128.12 209.219 126.394 208.455 124.729C208.443 124.696 208.437 124.661 208.438 124.626C208.439 124.591 208.447 124.556 208.462 124.524C208.477 124.492 208.498 124.464 208.524 124.44C208.55 124.416 208.58 124.398 208.613 124.386V124.386Z" fill="#F07162"/>
<path d="M212.517 125.283C212.502 125.249 212.494 125.213 212.493 125.176C212.492 125.139 212.498 125.102 212.512 125.067C212.526 125.033 212.546 125.001 212.572 124.975C212.597 124.948 212.628 124.927 212.662 124.913C212.731 124.886 212.807 124.886 212.876 124.913C212.944 124.94 213 124.992 213.032 125.058C213.728 126.688 214.173 128.415 214.351 130.179V130.179C214.341 130.243 214.31 130.302 214.262 130.345C214.214 130.389 214.152 130.414 214.087 130.416C214.051 130.42 214.015 130.416 213.981 130.405C213.947 130.395 213.915 130.377 213.888 130.353C213.861 130.33 213.838 130.301 213.823 130.269C213.807 130.236 213.798 130.201 213.797 130.165C213.62 128.482 213.189 126.836 212.517 125.283V125.283Z" fill="#F07162"/>
<path d="M209.748 145.158C209.748 145.158 225.575 169.348 225.429 169.849C225.284 170.351 214.694 170.008 210.143 161.417C205.593 152.826 206.859 145.765 206.859 145.765L209.748 145.158Z" fill="#F9B498"/>
<path d="M212.056 154.633C211.162 155.409 210.105 155.972 208.963 156.28C207.821 156.589 206.624 156.635 205.461 156.414L203.377 170.363L183.699 167.42L190.531 121.654L216.58 127.461C216.58 127.461 216.566 150.251 212.056 154.633Z" fill="url(#paint12_linear_71_9)"/>
<path d="M209.326 133.768C209.343 133.785 209.357 133.806 209.367 133.829C209.376 133.851 209.381 133.875 209.381 133.9C209.381 133.925 209.376 133.949 209.367 133.972C209.357 133.994 209.343 134.015 209.326 134.032C208.327 135.103 207.791 136.526 207.835 137.991C207.955 138.743 208.237 139.461 208.66 140.094C209.084 140.728 209.639 141.262 210.288 141.66L210.42 141.752L210.341 141.897C210.341 141.977 209.167 143.943 207.558 144.048C207.519 144.041 207.483 144.022 207.455 143.994C207.426 143.965 207.407 143.929 207.4 143.89C207.4 143.842 207.417 143.795 207.448 143.759C207.48 143.722 207.524 143.698 207.571 143.692C208.758 143.613 209.708 142.306 209.985 141.871C209.323 141.449 208.759 140.888 208.333 140.227C207.908 139.567 207.63 138.822 207.519 138.044C207.47 136.487 208.039 134.973 209.101 133.834C209.123 133.797 209.159 133.769 209.201 133.757C209.242 133.745 209.287 133.749 209.326 133.768V133.768Z" fill="#F07162"/>
<path d="M204.617 161.983C197.548 158.631 190.795 149.855 190.795 149.855C196.071 154.395 205.461 156.097 205.461 156.097L204.617 161.983Z" fill="#F58F83"/>
<path d="M207.413 132.554C207.44 132.593 207.459 132.637 207.469 132.683C207.479 132.73 207.479 132.777 207.471 132.824C207.462 132.87 207.445 132.915 207.419 132.955C207.393 132.994 207.36 133.029 207.321 133.056C207.282 133.082 207.238 133.101 207.192 133.111C207.146 133.121 207.098 133.122 207.051 133.113C207.005 133.105 206.96 133.087 206.921 133.061C206.881 133.035 206.847 133.002 206.82 132.963C204.182 129.004 199.025 131.789 198.814 131.907C198.774 131.933 198.729 131.95 198.682 131.957C198.635 131.964 198.587 131.961 198.541 131.949C198.495 131.936 198.452 131.915 198.415 131.885C198.378 131.855 198.348 131.818 198.326 131.775C198.278 131.691 198.265 131.592 198.289 131.498C198.314 131.404 198.374 131.324 198.458 131.274C198.458 131.274 204.353 128.054 207.413 132.554Z" fill="#171F32"/>
<path d="M187.274 131.987C188.38 132.153 189.412 132.643 190.24 133.397C191.068 134.15 191.654 135.131 191.924 136.218C192.195 137.304 192.137 138.446 191.758 139.5C191.38 140.553 190.698 141.471 189.799 142.137C188.899 142.802 187.823 143.186 186.705 143.24C185.588 143.294 184.479 143.015 183.52 142.438C182.561 141.862 181.794 141.014 181.317 140.001C180.839 138.989 180.673 137.858 180.837 136.751C180.947 136.015 181.201 135.308 181.584 134.67C181.966 134.032 182.471 133.476 183.069 133.034C183.667 132.591 184.346 132.271 185.067 132.091C185.789 131.912 186.538 131.876 187.274 131.987Z" fill="#F9B498"/>
<path d="M184.834 136.433C185.311 136.222 185.84 136.156 186.354 136.246C186.868 136.335 187.344 136.575 187.722 136.935C187.608 136.355 187.29 135.835 186.825 135.47C186.103 135.003 185.236 134.815 184.385 134.942C184.358 134.95 184.329 134.951 184.301 134.945C184.273 134.94 184.247 134.928 184.225 134.911C184.202 134.894 184.184 134.872 184.171 134.846C184.158 134.821 184.152 134.793 184.152 134.764C184.152 134.736 184.158 134.708 184.171 134.682C184.184 134.657 184.202 134.634 184.225 134.617C184.247 134.6 184.273 134.588 184.301 134.583C184.329 134.577 184.358 134.578 184.385 134.586C185.338 134.436 186.311 134.648 187.115 135.18C187.451 135.459 187.725 135.805 187.921 136.196C188.116 136.586 188.228 137.013 188.25 137.45V138.096L187.867 137.582C187.546 137.146 187.089 136.83 186.568 136.684C186.047 136.538 185.492 136.571 184.992 136.777C184.612 136.954 184.301 137.251 184.107 137.624C183.914 137.996 183.85 138.422 183.924 138.835C183.967 139.277 184.154 139.692 184.457 140.017C184.76 140.341 185.161 140.557 185.599 140.63C185.623 140.633 185.647 140.641 185.668 140.654C185.689 140.666 185.707 140.683 185.722 140.702C185.737 140.722 185.748 140.744 185.754 140.768C185.759 140.792 185.761 140.817 185.757 140.841C185.754 140.864 185.746 140.886 185.734 140.905C185.723 140.925 185.707 140.942 185.689 140.955C185.67 140.969 185.649 140.979 185.627 140.984C185.605 140.989 185.582 140.99 185.559 140.986V140.986C185.05 140.897 184.583 140.644 184.231 140.265C183.879 139.886 183.66 139.403 183.607 138.888C183.516 138.401 183.586 137.897 183.808 137.454C184.029 137.011 184.39 136.653 184.834 136.433V136.433Z" fill="#F07162"/>
<path d="M204.775 116.401C216.158 119.041 216.646 127.46 216.646 127.46L215.801 127.764L203.364 126.787L190.597 122.142C190.597 122.142 193.38 113.722 204.775 116.401Z" fill="#F9B498"/>
<path d="M203.628 170.707L183.66 167.724L183.739 167.13L203.127 170.034L205.211 156.085H205.501C206.62 156.296 207.773 156.253 208.873 155.958C209.974 155.663 210.994 155.125 211.858 154.382C216.21 150.133 216.276 127.646 216.276 127.421C216.276 127.197 215.722 119.239 204.71 116.653L204.841 116.072C216.316 118.712 216.87 127.316 216.87 127.395C216.87 128.345 216.804 150.384 212.293 154.805C211.402 155.588 210.349 156.165 209.208 156.494C208.068 156.822 206.87 156.894 205.699 156.705L203.628 170.707Z" fill="#F07162"/>
<path d="M203.588 113.023C204.38 113.141 217.859 114.342 217.859 114.342L218.822 120.545C218.822 120.545 210.605 126.496 201.531 123.514C201.531 123.514 196.73 134.428 190.07 132.897C183.409 131.366 189.437 116.15 189.437 116.15C189.437 116.15 202.823 112.904 203.588 113.023Z" fill="url(#paint13_linear_71_9)"/>
<path d="M206.622 138.362C206.681 138.371 206.735 138.403 206.771 138.451C206.807 138.499 206.822 138.56 206.813 138.619C206.804 138.679 206.772 138.732 206.724 138.768C206.676 138.804 206.615 138.819 206.556 138.811C206.496 138.802 206.443 138.77 206.407 138.722C206.371 138.673 206.356 138.613 206.365 138.553C206.374 138.494 206.405 138.44 206.454 138.404C206.502 138.368 206.562 138.353 206.622 138.362V138.362Z" fill="#EA5942"/>
<path d="M205.158 138.955C205.217 138.955 205.274 138.979 205.317 139.021C205.359 139.063 205.382 139.12 205.382 139.179C205.382 139.239 205.359 139.296 205.317 139.338C205.274 139.38 205.217 139.404 205.158 139.404C205.098 139.404 205.041 139.38 204.999 139.338C204.957 139.296 204.934 139.239 204.934 139.179C204.934 139.12 204.957 139.063 204.999 139.021C205.041 138.979 205.098 138.955 205.158 138.955V138.955Z" fill="#EA5942"/>
<path d="M202.942 136.988C203.002 136.988 203.059 137.012 203.101 137.054C203.143 137.096 203.166 137.153 203.166 137.213C203.166 137.272 203.143 137.329 203.101 137.371C203.059 137.413 203.002 137.437 202.942 137.437C202.883 137.437 202.826 137.413 202.784 137.371C202.742 137.329 202.718 137.272 202.718 137.213C202.718 137.153 202.742 137.096 202.784 137.054C202.826 137.012 202.883 136.988 202.942 136.988Z" fill="#EA5942"/>
<path d="M200.608 138.229C200.667 138.229 200.724 138.252 200.766 138.294C200.808 138.336 200.832 138.393 200.832 138.453C200.832 138.512 200.808 138.569 200.766 138.612C200.724 138.654 200.667 138.677 200.608 138.677C200.548 138.677 200.491 138.654 200.449 138.612C200.407 138.569 200.384 138.512 200.384 138.453C200.384 138.393 200.407 138.336 200.449 138.294C200.491 138.252 200.548 138.229 200.608 138.229V138.229Z" fill="#EA5942"/>
<path d="M198.735 135.801C198.794 135.81 198.848 135.842 198.884 135.89C198.92 135.939 198.935 135.999 198.926 136.059C198.917 136.118 198.885 136.172 198.837 136.208C198.789 136.243 198.728 136.259 198.669 136.25C198.639 136.246 198.611 136.236 198.586 136.22C198.56 136.205 198.538 136.185 198.52 136.161C198.502 136.137 198.489 136.11 198.482 136.081C198.475 136.052 198.473 136.022 198.478 135.993C198.482 135.963 198.492 135.935 198.507 135.909C198.523 135.884 198.543 135.861 198.567 135.844C198.591 135.826 198.618 135.813 198.647 135.806C198.675 135.798 198.705 135.797 198.735 135.801V135.801Z" fill="#EA5942"/>
<path d="M197.456 138.889C197.504 138.901 197.547 138.929 197.578 138.969C197.609 139.008 197.626 139.057 197.626 139.107C197.626 139.157 197.609 139.206 197.578 139.245C197.547 139.285 197.504 139.313 197.456 139.325C197.423 139.333 197.388 139.334 197.355 139.327C197.322 139.319 197.29 139.305 197.263 139.284C197.237 139.263 197.215 139.236 197.2 139.205C197.185 139.175 197.177 139.141 197.177 139.107C197.177 139.073 197.185 139.039 197.2 139.009C197.215 138.978 197.237 138.951 197.263 138.931C197.29 138.91 197.322 138.895 197.355 138.888C197.388 138.881 197.423 138.881 197.456 138.889V138.889Z" fill="#EA5942"/>
<path d="M211.264 137.727C211.324 137.736 211.378 137.768 211.413 137.816C211.449 137.864 211.464 137.925 211.456 137.984C211.447 138.044 211.415 138.097 211.367 138.133C211.318 138.169 211.258 138.184 211.198 138.176C211.139 138.167 211.085 138.135 211.05 138.087C211.014 138.038 210.998 137.978 211.007 137.918C211.016 137.859 211.048 137.805 211.096 137.769C211.144 137.734 211.205 137.718 211.264 137.727Z" fill="#EA5942"/>
<path d="M212.649 139.773C212.709 139.773 212.766 139.797 212.808 139.839C212.85 139.881 212.874 139.938 212.874 139.998C212.874 140.057 212.85 140.114 212.808 140.156C212.766 140.199 212.709 140.222 212.649 140.222C212.59 140.222 212.533 140.199 212.491 140.156C212.449 140.114 212.425 140.057 212.425 139.998C212.425 139.938 212.449 139.881 212.491 139.839C212.533 139.797 212.59 139.773 212.649 139.773V139.773Z" fill="#EA5942"/>
<path d="M214.773 139.272C214.832 139.272 214.889 139.295 214.931 139.337C214.973 139.379 214.997 139.437 214.997 139.496C214.997 139.556 214.973 139.613 214.931 139.655C214.889 139.697 214.832 139.72 214.773 139.72C214.713 139.72 214.656 139.697 214.614 139.655C214.572 139.613 214.549 139.556 214.549 139.496C214.549 139.437 214.572 139.379 214.614 139.337C214.656 139.295 214.713 139.272 214.773 139.272Z" fill="#EA5942"/>
<path d="M214.443 142.452C214.476 142.444 214.511 142.443 214.544 142.45C214.577 142.458 214.608 142.472 214.635 142.493C214.662 142.514 214.684 142.541 214.699 142.572C214.713 142.602 214.721 142.636 214.721 142.67C214.721 142.704 214.713 142.737 214.699 142.768C214.684 142.799 214.662 142.826 214.635 142.847C214.608 142.868 214.577 142.882 214.544 142.889C214.511 142.896 214.476 142.896 214.443 142.888C214.1 142.848 214.166 142.399 214.443 142.452Z" fill="#EA5942"/>
<path d="M203.351 140.116C203.411 140.124 203.464 140.157 203.5 140.205C203.536 140.253 203.551 140.314 203.542 140.373C203.534 140.433 203.502 140.486 203.453 140.522C203.405 140.558 203.345 140.573 203.285 140.564C203.226 140.556 203.172 140.524 203.136 140.475C203.1 140.427 203.085 140.367 203.094 140.307C203.103 140.248 203.135 140.194 203.183 140.158C203.231 140.122 203.292 140.107 203.351 140.116V140.116Z" fill="#EA5942"/>
<path d="M213.496 135.082C213.72 135.109 213.926 135.217 214.076 135.386C214.226 135.555 214.309 135.773 214.309 135.999C214.309 136.225 214.226 136.443 214.076 136.612C213.926 136.781 213.72 136.889 213.496 136.916C213.253 136.913 213.022 136.814 212.851 136.641C212.681 136.468 212.585 136.235 212.585 135.993C212.592 135.753 212.69 135.525 212.859 135.356C213.029 135.187 213.256 135.089 213.496 135.082V135.082Z" fill="#4C222E"/>
<path d="M203.618 133.984C203.842 134.011 204.048 134.12 204.198 134.289C204.348 134.458 204.431 134.676 204.431 134.902C204.431 135.127 204.348 135.346 204.198 135.515C204.048 135.684 203.842 135.792 203.618 135.819C203.375 135.815 203.143 135.716 202.973 135.544C202.803 135.371 202.707 135.138 202.707 134.895C202.714 134.656 202.812 134.428 202.981 134.258C203.15 134.089 203.378 133.991 203.618 133.984V133.984Z" fill="#4C222E"/>
<path d="M187.089 125.163C187.056 125.148 187.021 125.139 186.984 125.137C186.948 125.135 186.912 125.141 186.877 125.153C186.843 125.165 186.811 125.184 186.784 125.209C186.757 125.233 186.735 125.263 186.72 125.296C185.945 127.001 185.309 128.766 184.821 130.574V130.653C184.826 130.712 184.851 130.768 184.892 130.811C184.932 130.854 184.986 130.882 185.045 130.891C185.08 130.901 185.118 130.903 185.154 130.897C185.191 130.892 185.226 130.879 185.257 130.859C185.288 130.839 185.314 130.812 185.335 130.782C185.355 130.751 185.369 130.716 185.375 130.68C185.851 128.911 186.473 127.185 187.234 125.52C187.261 125.453 187.261 125.379 187.233 125.312C187.206 125.246 187.155 125.193 187.089 125.163Z" fill="#F07162"/>
<path d="M183.172 126.061C183.189 126.029 183.2 125.994 183.202 125.958C183.205 125.922 183.2 125.886 183.188 125.852C183.175 125.819 183.155 125.788 183.13 125.762C183.104 125.737 183.074 125.717 183.04 125.705C183.007 125.689 182.971 125.68 182.935 125.678C182.899 125.676 182.862 125.682 182.828 125.694C182.794 125.706 182.762 125.725 182.735 125.75C182.708 125.774 182.686 125.804 182.671 125.837C181.976 127.467 181.532 129.193 181.352 130.957V130.957C181.358 131.021 181.386 131.082 181.432 131.128C181.478 131.173 181.538 131.202 181.602 131.208C181.675 131.212 181.747 131.188 181.803 131.142C181.859 131.095 181.896 131.029 181.906 130.957C182.089 129.272 182.515 127.623 183.172 126.061V126.061Z" fill="#F07162"/>
<path d="M179.083 126.484C179.116 126.419 179.122 126.344 179.1 126.275C179.077 126.206 179.029 126.148 178.965 126.114C178.898 126.081 178.821 126.075 178.75 126.097C178.678 126.119 178.619 126.168 178.582 126.233C177.886 127.656 177.415 129.179 177.184 130.746V130.746C177.184 130.82 177.213 130.89 177.265 130.942C177.317 130.994 177.388 131.023 177.461 131.023C177.535 131.023 177.605 130.994 177.657 130.942C177.709 130.89 177.738 130.82 177.738 130.746C177.964 129.265 178.418 127.827 179.083 126.484V126.484Z" fill="#F07162"/>
<path fill-rule="evenodd" clip-rule="evenodd" d="M189.054 133.741C189.78 130.587 190.479 127.143 190.756 125.718C190.819 125.426 190.812 125.123 190.737 124.834C190.661 124.546 190.518 124.279 190.32 124.055C189.753 123.435 188.711 123.145 186.97 125.375C186.97 125.375 185.652 121.416 182.921 125.916C182.921 125.916 182.367 121.64 178.899 126.312C178.899 126.312 178.239 123.765 175.351 128.529C173.755 131.168 172.515 143.23 172.515 145.513C172.598 148.181 172.788 150.844 173.084 153.494C170.815 156.215 149.426 181.871 141.587 191.913C126.71 209.57 128.227 235.132 146.335 229.352C149.144 228.434 151.736 226.951 153.951 224.995C156.167 223.039 157.96 220.651 159.221 217.977C165.902 203.86 180.941 171.963 185.463 162.373C185.495 162.313 185.527 162.254 185.559 162.194C190.123 153.603 188.843 146.542 188.843 146.542L188.839 146.541C188.837 142.629 188.856 134.605 189.054 133.741Z" fill="#F9B498"/>
<path d="M181.655 169.994C181.655 169.994 206.042 179.614 217.964 172.013C229.887 164.411 212.227 165.837 212.227 165.837L201.874 164.992H184.24L181.655 169.994Z" fill="url(#paint14_linear_71_9)"/>
<path d="M141.508 230.474C139.949 230.522 138.403 230.171 137.017 229.452C135.632 228.734 134.454 227.673 133.595 226.37C131.207 222.793 130.601 217.132 131.933 210.745C133.497 203.727 136.752 197.199 141.416 191.728L141.864 192.111C137.277 197.513 134.069 203.948 132.513 210.863C131.194 217.066 131.788 222.595 134.096 226.04C136.589 229.774 140.809 230.817 146.296 229.062C149.067 228.16 151.623 226.699 153.808 224.77C155.992 222.841 157.758 220.484 158.997 217.844C166.91 201.322 186.364 159.884 186.562 159.475C189.199 153.906 188.606 146.107 188.593 146.028C188.593 140.828 188.593 134.481 188.817 133.676C189.542 130.509 190.241 127.077 190.518 125.652C190.567 125.406 190.559 125.152 190.495 124.91C190.431 124.668 190.313 124.443 190.149 124.253L190.597 123.857C190.822 124.117 190.983 124.424 191.07 124.756C191.157 125.088 191.167 125.435 191.099 125.771C190.835 127.091 190.123 130.641 189.397 133.808C189.265 134.388 189.186 138.836 189.199 146.002C189.199 146.068 189.793 154.012 187.102 159.726C186.904 160.148 167.398 201.573 159.537 218.108C158.258 220.816 156.44 223.234 154.195 225.215C151.95 227.196 149.325 228.698 146.48 229.629C144.878 230.171 143.2 230.456 141.508 230.474V230.474Z" fill="#F07162"/>
<path d="M225.654 194.976C225.509 194.659 210.856 163.594 209.972 161.984C209.125 160.229 208.368 158.432 207.703 156.6L208.257 156.389C208.257 156.389 209.576 160.071 210.499 161.667C211.423 163.264 225.588 193.445 226.194 194.659L225.654 194.976Z" fill="#F07162"/>
<path d="M217.094 132.239C217.128 132.271 217.156 132.31 217.174 132.353C217.193 132.396 217.203 132.443 217.203 132.49C217.203 132.537 217.193 132.583 217.174 132.626C217.156 132.669 217.128 132.708 217.094 132.74C217.061 132.775 217.021 132.803 216.977 132.821C216.932 132.84 216.885 132.85 216.837 132.85C216.789 132.85 216.741 132.84 216.697 132.821C216.653 132.803 216.613 132.775 216.58 132.74C215.023 131.421 212.135 133.809 212.109 133.836C212.041 133.889 211.957 133.917 211.871 133.915C211.818 133.916 211.765 133.904 211.717 133.881C211.669 133.859 211.627 133.825 211.594 133.783C211.531 133.715 211.496 133.625 211.496 133.532C211.496 133.439 211.531 133.35 211.594 133.281C211.818 133.202 215.063 130.457 217.094 132.239Z" fill="#171F32"/>
<path d="M209.529 147.156L209.727 147.552C209.582 147.631 206.06 149.439 203.805 147.552L204.082 147.208C206.113 148.911 209.463 147.169 209.529 147.156Z" fill="#F07162"/>
<path d="M207.912 521.899L227.779 519.826L221.456 490.584L202.288 495.722L207.912 521.899Z" fill="#FE9F73"/>
<path d="M252.111 522.031L248.813 522.226L232.486 513.442L225.088 523.69L204.406 524.959C204.281 524.968 204.159 525.004 204.048 525.063C203.937 525.122 203.84 525.203 203.762 525.302C203.684 525.4 203.627 525.514 203.595 525.635C203.564 525.757 203.557 525.884 203.577 526.008L203.914 529.351C203.93 529.527 204.012 529.689 204.143 529.807C204.274 529.925 204.444 529.989 204.621 529.986L252.708 527.026C253.065 526.991 253.41 526.875 253.715 526.687C254.021 526.499 254.28 526.244 254.473 525.941C254.665 525.638 254.786 525.295 254.826 524.938C254.866 524.582 254.824 524.221 254.704 523.882C254.533 523.333 254.187 522.855 253.718 522.521C253.25 522.186 252.686 522.015 252.111 522.031Z" fill="#FC4F68"/>
<path d="M245.512 517.987L227.107 510.754C220.801 518.528 212.165 512.946 212.165 512.946C206.61 510.724 203.646 515.929 203.646 515.929L204.581 524.974L252.087 522.079C250.553 519.374 245.512 517.987 245.512 517.987Z" fill="url(#paint15_linear_71_9)"/>
<path d="M204.462 524.918L204.808 524.9L203.875 515.896L203.53 515.914L204.462 524.918Z" fill="black"/>
<path d="M212.298 512.738L212.136 513.054C214.382 514.469 217.012 515.151 219.663 515.006C220.025 514.988 220.386 514.945 220.743 514.878L220.607 514.521C217.713 514.952 214.761 514.318 212.298 512.738V512.738Z" fill="black"/>
<path d="M206.323 521.529L208.73 523L208.892 522.684L206.485 521.213L206.323 521.529Z" fill="black"/>
<path d="M207.891 520.977L210.285 522.453L210.459 522.132L208.048 520.649L207.891 520.977Z" fill="black"/>
<path d="M252.183 521.848L204.682 524.754C204.501 524.768 204.324 524.82 204.164 524.905C204.004 524.99 203.863 525.107 203.75 525.25C203.637 525.392 203.555 525.556 203.508 525.732C203.461 525.907 203.451 526.09 203.479 526.27L203.74 528.781L204.086 528.763L203.825 526.251C203.807 526.118 203.816 525.982 203.852 525.852C203.888 525.722 203.949 525.601 204.033 525.495C204.117 525.39 204.221 525.302 204.339 525.238C204.457 525.173 204.588 525.133 204.722 525.12L252.215 522.231C252.821 522.219 253.408 522.439 253.858 522.844C254.308 523.25 254.587 523.811 254.638 524.415C254.672 524.743 254.636 525.074 254.534 525.388C254.432 525.701 254.265 525.99 254.045 526.235L254.302 526.504C254.547 526.221 254.73 525.888 254.837 525.529C254.944 525.169 254.973 524.791 254.922 524.42C254.872 523.725 254.563 523.074 254.055 522.598C253.547 522.121 252.879 521.853 252.183 521.848V521.848Z" fill="black"/>
<path d="M247.361 518.401C243.65 516.989 227.393 510.619 227.218 510.53L227.111 510.881C227.276 510.946 243.556 517.335 247.255 518.753C249.17 519.33 250.848 520.508 252.043 522.113L252.363 521.991C251.141 520.272 249.381 519.009 247.361 518.401V518.401Z" fill="black"/>
<path d="M230.6 274.327C229.756 268.415 225.324 264.733 220.141 266.871L187.894 280.292C186.164 281.068 184.709 282.348 183.72 283.967C182.731 285.585 182.255 287.464 182.354 289.358C183.225 317.217 187.036 426.222 195.029 497.537C195.193 499.725 196.159 501.775 197.741 503.295C199.323 504.814 201.41 505.696 203.602 505.771C210.065 505.746 216.483 504.699 222.62 502.67C224.435 502.018 226.003 500.819 227.109 499.238C228.214 497.656 228.802 495.771 228.793 493.842L231.681 280.504C231.681 279.976 229.861 276.32 229.782 275.792L230.6 274.327Z" fill="url(#paint16_linear_71_9)"/>
<path d="M125.763 515.413L144.202 520.307L148.084 490.67L129.27 488.895L125.763 515.413Z" fill="#FE9F73"/>
<path d="M166.64 530.734L163.476 529.783L151.158 515.919L140.693 523.003L120.835 517.084C120.714 517.05 120.588 517.042 120.463 517.059C120.339 517.077 120.219 517.12 120.112 517.185C120.005 517.251 119.913 517.338 119.842 517.441C119.77 517.545 119.72 517.662 119.696 517.785L118.865 521.042C118.82 521.212 118.841 521.393 118.924 521.548C119.007 521.704 119.145 521.823 119.311 521.881L165.487 535.631C165.834 535.721 166.198 535.731 166.549 535.66C166.901 535.588 167.232 535.437 167.516 535.219C167.801 535 168.032 534.72 168.192 534.398C168.352 534.077 168.437 533.724 168.44 533.365C168.468 532.79 168.307 532.222 167.982 531.747C167.657 531.272 167.186 530.916 166.64 530.734Z" fill="#FC4F68"/>
<path d="M161.83 524.668L147.028 511.547C138.439 516.681 132.244 508.469 132.244 508.469C127.789 504.473 123.22 508.343 123.22 508.343L120.994 517.16L166.601 530.772C166.089 527.704 161.83 524.668 161.83 524.668Z" fill="url(#paint17_linear_71_9)"/>
<path d="M120.901 517.068L121.232 517.17L123.445 508.393L123.114 508.291L120.901 517.068Z" fill="black"/>
<path d="M132.44 508.322L132.179 508.563C133.803 510.664 136.039 512.209 138.578 512.985C138.925 513.092 139.278 513.176 139.636 513.236L139.632 512.853C136.766 512.263 134.211 510.653 132.44 508.322V508.322Z" fill="black"/>
<path d="M123.811 514.526L125.566 516.734L125.827 516.494L124.072 514.285L123.811 514.526Z" fill="black"/>
<path d="M125.473 514.545L127.215 516.754L127.489 516.513L125.734 514.291L125.473 514.545Z" fill="black"/>
<path d="M166.77 530.588L121.164 516.988C120.989 516.939 120.806 516.927 120.626 516.952C120.446 516.977 120.273 517.038 120.119 517.133C119.964 517.228 119.83 517.354 119.726 517.503C119.622 517.652 119.55 517.82 119.514 517.998L118.898 520.448L119.229 520.549L119.845 518.1C119.874 517.968 119.929 517.844 120.008 517.734C120.086 517.625 120.185 517.532 120.3 517.461C120.415 517.391 120.543 517.344 120.676 517.325C120.809 517.305 120.945 517.312 121.076 517.346L166.669 530.958C167.242 531.156 167.718 531.564 168.002 532.099C168.285 532.635 168.354 533.258 168.195 533.843C168.114 534.163 167.967 534.462 167.764 534.721C167.56 534.98 167.305 535.194 167.013 535.349L167.163 535.69C167.49 535.508 167.776 535.259 167.999 534.958C168.223 534.657 168.38 534.312 168.46 533.945C168.652 533.276 168.585 532.558 168.271 531.936C167.958 531.314 167.422 530.832 166.77 530.588V530.588Z" fill="black"/>
<path d="M163.426 525.692C160.426 523.089 147.344 511.518 147.211 511.374L146.99 511.667C147.123 511.784 160.219 523.382 163.205 525.985C164.806 527.186 165.978 528.869 166.549 530.787L166.891 530.783C166.333 528.748 165.114 526.957 163.426 525.692V525.692Z" fill="black"/>
<path d="M140.769 393.216C136.813 427.105 125.325 462.314 123.479 491.848C123.311 493.68 123.792 495.513 124.838 497.026C125.885 498.539 127.43 499.635 129.203 500.123C136.318 501.819 143.68 502.222 150.938 501.311C152.481 501.075 153.912 500.365 155.035 499.28C156.157 498.195 156.915 496.788 157.203 495.253L182.341 401.807L197.548 307.345L213.876 255.957L153.958 273.482C153.958 273.482 147.984 332.221 140.769 393.216Z" fill="#CA0030"/>
<path d="M193.776 330.967C193.726 330.96 193.674 330.962 193.625 330.975C193.576 330.987 193.53 331.01 193.489 331.04C193.449 331.071 193.415 331.11 193.389 331.154C193.364 331.198 193.347 331.247 193.341 331.297L185.744 378.225L186.456 378.409L194.066 331.442C194.087 331.341 194.068 331.236 194.014 331.147C193.96 331.059 193.875 330.995 193.776 330.967Z" fill="black"/>
<path d="M155.343 227.229L147.72 306.409C147.72 306.409 198.155 315.369 235.479 306.792L230.85 228.535L155.343 227.229Z" fill="url(#paint18_linear_71_9)"/>
</g>
<defs>
<filter id="filter0_f_71_9" x="-69" y="-83" width="685" height="685" filterUnits="userSpaceOnUse" color-interpolation-filters="sRGB">
<feFlood flood-opacity="0" result="BackgroundImageFix"/>
<feBlend mode="normal" in="SourceGraphic" in2="BackgroundImageFix" result="shape"/>
<feGaussianBlur stdDeviation="50" result="effect1_foregroundBlur_71_9"/>
</filter>
<radialGradient id="paint0_radial_71_9" cx="0" cy="0" r="1" gradientUnits="userSpaceOnUse" gradientTransform="translate(273.5 259.5) rotate(90) scale(242.5)">
<stop stop-color="#0050CA"/>
<stop offset="1" stop-color="#0050CA" stop-opacity="0"/>
</radialGradient>
<linearGradient id="paint1_linear_71_9" x1="405.677" y1="194.197" x2="405.677" y2="287.59" gradientUnits="userSpaceOnUse">
<stop stop-color="#FFC79D"/>
<stop offset="1" stop-color="#F79A86"/>
</linearGradient>
<linearGradient id="paint2_linear_71_9" x1="259.622" y1="188.641" x2="259.622" y2="258.478" gradientUnits="userSpaceOnUse">
<stop stop-color="#FFC79D"/>
<stop offset="1" stop-color="#F79A86"/>
</linearGradient>
<linearGradient id="paint3_linear_71_9" x1="334.574" y1="111.639" x2="334.574" y2="167.013" gradientUnits="userSpaceOnUse">
<stop stop-color="#FFC79D"/>
<stop offset="1" stop-color="#F79A86"/>
</linearGradient>
<linearGradient id="paint4_linear_71_9" x1="349.422" y1="109.775" x2="349.422" y2="143.246" gradientUnits="userSpaceOnUse">
<stop stop-color="#E28569"/>
<stop offset="1" stop-color="#B7715E"/>
</linearGradient>
<linearGradient id="paint5_linear_71_9" x1="345.212" y1="124.584" x2="345.212" y2="135.59" gradientUnits="userSpaceOnUse">
<stop stop-color="#FFC79D"/>
<stop offset="1" stop-color="#F79A86"/>
</linearGradient>
<linearGradient id="paint6_linear_71_9" x1="330.634" y1="100.9" x2="330.634" y2="118.486" gradientUnits="userSpaceOnUse">
<stop stop-color="#E28569"/>
<stop offset="1" stop-color="#B7715E"/>
</linearGradient>
<linearGradient id="paint7_linear_71_9" x1="350.766" y1="252.908" x2="350.766" y2="521.555" gradientUnits="userSpaceOnUse">
<stop stop-color="#4425FF"/>
<stop offset="1" stop-color="#383168"/>
</linearGradient>
<linearGradient id="paint8_linear_71_9" x1="378.769" y1="271.476" x2="378.769" y2="299.075" gradientUnits="userSpaceOnUse">
<stop stop-color="#FFC79D"/>
<stop offset="1" stop-color="#F79A86"/>
</linearGradient>
<linearGradient id="paint9_linear_71_9" x1="150.708" y1="118.236" x2="150.708" y2="202.619" gradientUnits="userSpaceOnUse">
<stop stop-color="#E28569"/>
<stop offset="1" stop-color="#B7715E"/>
</linearGradient>
<linearGradient id="paint10_linear_71_9" x1="187.618" y1="104.83" x2="187.618" y2="201.363" gradientUnits="userSpaceOnUse">
<stop stop-color="#E28569"/>
<stop offset="1" stop-color="#B7715E"/>
</linearGradient>
<linearGradient id="paint11_linear_71_9" x1="236.576" y1="152.482" x2="236.576" y2="229.398" gradientUnits="userSpaceOnUse">
<stop stop-color="#FFC79D"/>
<stop offset="1" stop-color="#F79A86"/>
</linearGradient>
<linearGradient id="paint12_linear_71_9" x1="200.14" y1="121.654" x2="200.14" y2="170.363" gradientUnits="userSpaceOnUse">
<stop stop-color="#FFC79D"/>
<stop offset="1" stop-color="#F79A86"/>
</linearGradient>
<linearGradient id="paint13_linear_71_9" x1="202.879" y1="113.02" x2="202.879" y2="133.044" gradientUnits="userSpaceOnUse">
<stop stop-color="#E28569"/>
<stop offset="1" stop-color="#B7715E"/>
</linearGradient>
<linearGradient id="paint14_linear_71_9" x1="201.877" y1="164.992" x2="201.877" y2="174.937" gradientUnits="userSpaceOnUse">
<stop stop-color="#FFC79D"/>
<stop offset="1" stop-color="#F79A86"/>
</linearGradient>
<linearGradient id="paint15_linear_71_9" x1="222.127" y1="507.167" x2="230.859" y2="530.146" gradientUnits="userSpaceOnUse">
<stop stop-color="#CA0030"/>
<stop offset="1" stop-color="#530014"/>
</linearGradient>
<linearGradient id="paint16_linear_71_9" x1="207.011" y1="266.258" x2="207.011" y2="505.771" gradientUnits="userSpaceOnUse">
<stop stop-color="#CA0030"/>
<stop offset="1" stop-color="#530014"/>
</linearGradient>
<linearGradient id="paint17_linear_71_9" x1="143.583" y1="506.465" x2="143.885" y2="531.052" gradientUnits="userSpaceOnUse">
<stop stop-color="#CA0030"/>
<stop offset="1" stop-color="#530014"/>
</linearGradient>
<linearGradient id="paint18_linear_71_9" x1="191.6" y1="227.229" x2="191.6" y2="310.507" gradientUnits="userSpaceOnUse">
<stop stop-color="#CA0030"/>
<stop offset="1" stop-color="#530014"/>
</linearGradient>
<clipPath id="clip0_71_9">
<rect width="546" height="561" fill="white"/>
</clipPath>
</defs>
</svg>
