<svg width="470" height="370" viewBox="0 0 470 370" fill="none" xmlns="http://www.w3.org/2000/svg">
<g filter="url(#filter0_b_153_3453)">
<rect y="120" width="270" height="250" rx="30" fill="url(#paint0_linear_153_3453)"/>
</g>
<g filter="url(#filter1_b_153_3453)">
<rect x="300" width="170" height="170" rx="30" fill="url(#paint1_linear_153_3453)"/>
</g>
<g filter="url(#filter2_b_153_3453)">
<rect x="300" y="200" width="170" height="170" rx="30" fill="url(#paint2_linear_153_3453)"/>
</g>
<g filter="url(#filter3_b_153_3453)">
<rect width="270" height="90" rx="30" fill="url(#paint3_linear_153_3453)"/>
</g>
<path d="M37.104 37.8C38.1813 37.8 39.152 38.04 40.016 38.52C40.8907 39 41.568 39.6667 42.048 40.52C42.5387 41.3733 42.784 42.328 42.784 43.384C42.784 45.016 42.2453 46.36 41.168 47.416C40.1013 48.472 38.7467 49 37.104 49H33.664V37.8H37.104ZM37.072 48.232C37.776 48.232 38.4267 48.1147 39.024 47.88C39.632 47.6347 40.1493 47.2987 40.576 46.872C41.0133 46.4453 41.3493 45.9333 41.584 45.336C41.8293 44.728 41.952 44.0773 41.952 43.384C41.952 41.9867 41.4933 40.8347 40.576 39.928C39.6587 39.0213 38.4907 38.568 37.072 38.568H34.464V48.232H37.072ZM45.0018 38.568V37.464H45.9778V38.568H45.0018ZM45.0978 49V40.36H45.8818V49H45.0978ZM56.4626 40.36H57.1026V49H56.4306L56.3506 47.128C55.9666 47.768 55.444 48.2693 54.7826 48.632C54.132 48.9947 53.4013 49.176 52.5906 49.176C51.3213 49.176 50.2653 48.7493 49.4226 47.896C48.58 47.032 48.1586 45.96 48.1586 44.68C48.1586 43.4 48.58 42.3333 49.4226 41.48C50.2653 40.616 51.3213 40.184 52.5906 40.184C53.4013 40.184 54.132 40.3707 54.7826 40.744C55.444 41.1067 55.9666 41.608 56.3506 42.248L56.4626 40.36ZM52.6386 48.408C53.332 48.408 53.956 48.248 54.5106 47.928C55.076 47.608 55.5133 47.1653 55.8226 46.6C56.1426 46.024 56.3026 45.384 56.3026 44.68C56.3026 43.6027 55.956 42.712 55.2626 42.008C54.5693 41.304 53.6946 40.952 52.6386 40.952C51.5826 40.952 50.7026 41.3093 49.9986 42.024C49.3053 42.728 48.9586 43.6133 48.9586 44.68C48.9586 45.7467 49.3053 46.6373 49.9986 47.352C50.7026 48.056 51.5826 48.408 52.6386 48.408ZM67.3614 40.36H67.9054V47.752C67.9054 49.1493 67.5374 50.2427 66.8014 51.032C66.0654 51.832 65.0574 52.232 63.7774 52.232C62.7854 52.232 61.948 51.992 61.2654 51.512C60.5934 51.032 60.124 50.36 59.8574 49.496H60.6414C60.876 50.136 61.2707 50.632 61.8254 50.984C62.38 51.336 63.0307 51.512 63.7774 51.512C64.812 51.512 65.628 51.1867 66.2254 50.536C66.8334 49.8853 67.1374 48.984 67.1374 47.832V46.856C66.892 47.2293 66.5934 47.5547 66.2414 47.832C65.8894 48.1093 65.484 48.3227 65.0254 48.472C64.5774 48.6213 64.1027 48.696 63.6014 48.696C62.4067 48.696 61.404 48.2907 60.5934 47.48C59.7827 46.6693 59.3774 45.656 59.3774 44.44C59.3774 43.2453 59.7827 42.2373 60.5934 41.416C61.4147 40.5947 62.4174 40.184 63.6014 40.184C64.38 40.184 65.084 40.3653 65.7134 40.728C66.3534 41.0907 66.86 41.5813 67.2334 42.2L67.3614 40.36ZM61.1694 46.952C61.8414 47.6133 62.6787 47.944 63.6814 47.944C64.684 47.944 65.5107 47.6133 66.1614 46.952C66.812 46.2907 67.1374 45.4587 67.1374 44.456C67.1374 43.4427 66.8067 42.6053 66.1454 41.944C65.4947 41.272 64.6734 40.936 63.6814 40.936C62.6787 40.936 61.8414 41.272 61.1694 41.944C60.508 42.616 60.1774 43.4533 60.1774 44.456C60.1774 45.448 60.508 46.28 61.1694 46.952ZM74.9579 40.184C75.9819 40.184 76.7979 40.5253 77.4059 41.208C78.0139 41.88 78.3179 42.7653 78.3179 43.864V49H77.5339V44.024C77.5339 43.0427 77.2885 42.28 76.7979 41.736C76.3179 41.1813 75.6459 40.904 74.7819 40.904C73.9392 40.904 73.2139 41.2187 72.6059 41.848C72.0085 42.4667 71.7099 43.208 71.7099 44.072V49H70.9259V40.36H71.5179L71.6619 42.104C71.9819 41.5173 72.4352 41.0533 73.0219 40.712C73.6085 40.36 74.2539 40.184 74.9579 40.184ZM84.9679 49.176C83.6772 49.176 82.5999 48.7493 81.7359 47.896C80.8719 47.0427 80.4399 45.9707 80.4399 44.68C80.4399 43.3893 80.8665 42.3173 81.7199 41.464C82.5839 40.6107 83.6612 40.184 84.9519 40.184C86.2532 40.184 87.3305 40.6107 88.1839 41.464C89.0479 42.3173 89.4799 43.3893 89.4799 44.68C89.4799 45.9707 89.0479 47.0427 88.1839 47.896C87.3305 48.7493 86.2585 49.176 84.9679 49.176ZM84.9679 48.408C85.6719 48.408 86.3065 48.248 86.8719 47.928C87.4372 47.608 87.8799 47.1653 88.1999 46.6C88.5199 46.024 88.6799 45.384 88.6799 44.68C88.6799 43.6027 88.3279 42.712 87.6239 42.008C86.9199 41.304 86.0345 40.952 84.9679 40.952C84.2532 40.952 83.6132 41.112 83.0479 41.432C82.4825 41.752 82.0399 42.2 81.7199 42.776C81.3999 43.3413 81.2399 43.976 81.2399 44.68C81.2399 45.7467 81.5919 46.6373 82.2959 47.352C82.9999 48.056 83.8905 48.408 84.9679 48.408ZM94.314 49.176C93.3327 49.176 92.5433 48.9413 91.946 48.472C91.3593 48.0027 91.034 47.3627 90.97 46.552H91.738C91.802 47.1493 92.0633 47.6133 92.522 47.944C92.9807 48.2747 93.5833 48.44 94.33 48.44C95.0873 48.44 95.6953 48.28 96.154 47.96C96.6233 47.64 96.858 47.208 96.858 46.664C96.858 46.408 96.8047 46.184 96.698 45.992C96.5913 45.7893 96.4633 45.6347 96.314 45.528C96.1753 45.4107 95.9727 45.304 95.706 45.208C95.4393 45.112 95.21 45.048 95.018 45.016C94.826 44.9733 94.5593 44.92 94.218 44.856C93.93 44.8133 93.7113 44.776 93.562 44.744C93.4127 44.712 93.21 44.664 92.954 44.6C92.7087 44.536 92.5113 44.472 92.362 44.408C92.2233 44.3333 92.0633 44.2373 91.882 44.12C91.7113 44.0027 91.578 43.8747 91.482 43.736C91.386 43.5973 91.306 43.4267 91.242 43.224C91.178 43.0213 91.146 42.7973 91.146 42.552C91.146 41.848 91.434 41.2773 92.01 40.84C92.586 40.4027 93.338 40.184 94.266 40.184C94.8847 40.184 95.4287 40.2853 95.898 40.488C96.3673 40.6907 96.73 40.9787 96.986 41.352C97.242 41.7253 97.386 42.168 97.418 42.68H96.666C96.6447 42.4027 96.5753 42.152 96.458 41.928C96.3407 41.704 96.1807 41.5173 95.978 41.368C95.7753 41.2187 95.5247 41.1013 95.226 41.016C94.938 40.9307 94.6127 40.888 94.25 40.888C93.546 40.888 92.9807 41.0373 92.554 41.336C92.1273 41.6347 91.914 42.0293 91.914 42.52C91.914 42.6907 91.9353 42.8453 91.978 42.984C92.0313 43.112 92.09 43.224 92.154 43.32C92.2287 43.416 92.3353 43.5067 92.474 43.592C92.6127 43.6667 92.7353 43.7253 92.842 43.768C92.9593 43.8107 93.1193 43.8587 93.322 43.912C93.5353 43.9653 93.706 44.0027 93.834 44.024C93.962 44.0453 94.1487 44.0773 94.394 44.12C94.682 44.1627 94.9007 44.2 95.05 44.232C95.21 44.264 95.4233 44.3173 95.69 44.392C95.9567 44.456 96.1647 44.5253 96.314 44.6C96.4633 44.664 96.634 44.76 96.826 44.888C97.018 45.016 97.162 45.16 97.258 45.32C97.3647 45.4693 97.45 45.6613 97.514 45.896C97.5887 46.12 97.626 46.3707 97.626 46.648C97.626 47.4053 97.322 48.0187 96.714 48.488C96.1167 48.9467 95.3167 49.176 94.314 49.176ZM99.783 38.568V37.464H100.759V38.568H99.783ZM99.879 49V40.36H100.663V49H99.879ZM106.236 49.176C105.255 49.176 104.465 48.9413 103.868 48.472C103.281 48.0027 102.956 47.3627 102.892 46.552H103.66C103.724 47.1493 103.985 47.6133 104.444 47.944C104.903 48.2747 105.505 48.44 106.252 48.44C107.009 48.44 107.617 48.28 108.076 47.96C108.545 47.64 108.78 47.208 108.78 46.664C108.78 46.408 108.727 46.184 108.62 45.992C108.513 45.7893 108.385 45.6347 108.236 45.528C108.097 45.4107 107.895 45.304 107.628 45.208C107.361 45.112 107.132 45.048 106.94 45.016C106.748 44.9733 106.481 44.92 106.14 44.856C105.852 44.8133 105.633 44.776 105.484 44.744C105.335 44.712 105.132 44.664 104.876 44.6C104.631 44.536 104.433 44.472 104.284 44.408C104.145 44.3333 103.985 44.2373 103.804 44.12C103.633 44.0027 103.5 43.8747 103.404 43.736C103.308 43.5973 103.228 43.4267 103.164 43.224C103.1 43.0213 103.068 42.7973 103.068 42.552C103.068 41.848 103.356 41.2773 103.932 40.84C104.508 40.4027 105.26 40.184 106.188 40.184C106.807 40.184 107.351 40.2853 107.82 40.488C108.289 40.6907 108.652 40.9787 108.908 41.352C109.164 41.7253 109.308 42.168 109.34 42.68H108.588C108.567 42.4027 108.497 42.152 108.38 41.928C108.263 41.704 108.103 41.5173 107.9 41.368C107.697 41.2187 107.447 41.1013 107.148 41.016C106.86 40.9307 106.535 40.888 106.172 40.888C105.468 40.888 104.903 41.0373 104.476 41.336C104.049 41.6347 103.836 42.0293 103.836 42.52C103.836 42.6907 103.857 42.8453 103.9 42.984C103.953 43.112 104.012 43.224 104.076 43.32C104.151 43.416 104.257 43.5067 104.396 43.592C104.535 43.6667 104.657 43.7253 104.764 43.768C104.881 43.8107 105.041 43.8587 105.244 43.912C105.457 43.9653 105.628 44.0027 105.756 44.024C105.884 44.0453 106.071 44.0773 106.316 44.12C106.604 44.1627 106.823 44.2 106.972 44.232C107.132 44.264 107.345 44.3173 107.612 44.392C107.879 44.456 108.087 44.5253 108.236 44.6C108.385 44.664 108.556 44.76 108.748 44.888C108.94 45.016 109.084 45.16 109.18 45.32C109.287 45.4693 109.372 45.6613 109.436 45.896C109.511 46.12 109.548 46.3707 109.548 46.648C109.548 47.4053 109.244 48.0187 108.636 48.488C108.039 48.9467 107.239 49.176 106.236 49.176Z" fill="#07162D"/>
<rect x="201" y="21" width="48" height="48" rx="15" fill="#F2FAFF"/>
<path fill-rule="evenodd" clip-rule="evenodd" d="M223.002 38.3836C225.381 36.0049 229.237 36.0049 231.616 38.3836C233.995 40.7623 233.995 44.6188 231.616 46.9976C229.549 49.0642 226.367 49.3353 224.008 47.8109L222.414 49.4048L222.539 49.781C222.611 49.9965 222.555 50.2343 222.394 50.395L219.968 52.8217C219.197 53.5921 217.948 53.5921 217.178 52.8217C216.407 52.0512 216.407 50.8022 217.178 50.0317L219.604 47.6051C219.765 47.4444 220.003 47.3883 220.218 47.46L220.595 47.5855L222.189 45.9918C220.664 43.6324 220.935 40.4502 223.002 38.3835L223.002 38.3836ZM230.249 41.1982C230.469 40.9505 230.446 40.5712 230.199 40.3512C229.951 40.131 229.572 40.1533 229.352 40.401L226.567 43.534L225.417 42.4248C225.178 42.1948 224.798 42.2017 224.568 42.4402C224.338 42.6787 224.345 43.0587 224.584 43.2886L226.184 44.8315C226.301 44.9448 226.46 45.0053 226.623 44.9992C226.787 44.9929 226.94 44.9203 227.049 44.7983L230.249 41.1982Z" fill="#647795"/>
<path d="M37.504 317.8C38.528 317.8 39.3813 318.131 40.064 318.792C40.7467 319.443 41.088 320.259 41.088 321.24C41.088 322.221 40.7467 323.043 40.064 323.704C39.3813 324.355 38.528 324.68 37.504 324.68H34.464V329H33.664V317.8H37.504ZM37.472 323.896C38.272 323.896 38.9387 323.645 39.472 323.144C40.0053 322.632 40.272 321.997 40.272 321.24C40.272 320.483 40.0053 319.853 39.472 319.352C38.9387 318.84 38.272 318.584 37.472 318.584H34.464V323.896H37.472ZM50.6033 320.36H51.2433V329H50.5712L50.4913 327.128C50.1073 327.768 49.5846 328.269 48.9233 328.632C48.2726 328.995 47.5419 329.176 46.7313 329.176C45.4619 329.176 44.4059 328.749 43.5633 327.896C42.7206 327.032 42.2993 325.96 42.2993 324.68C42.2993 323.4 42.7206 322.333 43.5633 321.48C44.4059 320.616 45.4619 320.184 46.7313 320.184C47.5419 320.184 48.2726 320.371 48.9233 320.744C49.5846 321.107 50.1073 321.608 50.4913 322.248L50.6033 320.36ZM46.7793 328.408C47.4726 328.408 48.0966 328.248 48.6513 327.928C49.2166 327.608 49.6539 327.165 49.9633 326.6C50.2833 326.024 50.4433 325.384 50.4433 324.68C50.4433 323.603 50.0966 322.712 49.4033 322.008C48.7099 321.304 47.8353 320.952 46.7793 320.952C45.7233 320.952 44.8433 321.309 44.1393 322.024C43.4459 322.728 43.0993 323.613 43.0993 324.68C43.0993 325.747 43.4459 326.637 44.1393 327.352C44.8433 328.056 45.7233 328.408 46.7793 328.408ZM63.726 328.28H64.798V329.032H63.646C62.8033 329.032 62.1367 328.787 61.646 328.296C61.166 327.795 60.926 327.117 60.926 326.264V321.064H59.102V320.376H60.926V317.832H61.71V320.376H64.734V321.064H61.71V326.232C61.71 326.883 61.886 327.389 62.238 327.752C62.59 328.104 63.086 328.28 63.726 328.28ZM54.974 322.104C55.2727 321.549 55.6727 321.123 56.174 320.824C56.6753 320.515 57.262 320.36 57.934 320.36H58.478V321.096H57.886C57.022 321.096 56.3287 321.384 55.806 321.96C55.294 322.525 55.038 323.272 55.038 324.2V329H54.254V320.36H54.846L54.974 322.104ZM69.1578 329.176C68.1764 329.176 67.3871 328.941 66.7898 328.472C66.2031 328.003 65.8778 327.363 65.8138 326.552H66.5818C66.6458 327.149 66.9071 327.613 67.3658 327.944C67.8244 328.275 68.4271 328.44 69.1738 328.44C69.9311 328.44 70.5391 328.28 70.9978 327.96C71.4671 327.64 71.7018 327.208 71.7018 326.664C71.7018 326.408 71.6484 326.184 71.5418 325.992C71.4351 325.789 71.3071 325.635 71.1578 325.528C71.0191 325.411 70.8164 325.304 70.5498 325.208C70.2831 325.112 70.0538 325.048 69.8618 325.016C69.6698 324.973 69.4031 324.92 69.0618 324.856C68.7738 324.813 68.5551 324.776 68.4058 324.744C68.2564 324.712 68.0538 324.664 67.7978 324.6C67.5524 324.536 67.3551 324.472 67.2057 324.408C67.0671 324.333 66.9071 324.237 66.7258 324.12C66.5551 324.003 66.4218 323.875 66.3258 323.736C66.2298 323.597 66.1498 323.427 66.0858 323.224C66.0218 323.021 65.9898 322.797 65.9898 322.552C65.9898 321.848 66.2778 321.277 66.8538 320.84C67.4298 320.403 68.1818 320.184 69.1098 320.184C69.7284 320.184 70.2724 320.285 70.7418 320.488C71.2111 320.691 71.5738 320.979 71.8298 321.352C72.0858 321.725 72.2298 322.168 72.2618 322.68H71.5098C71.4884 322.403 71.4191 322.152 71.3018 321.928C71.1844 321.704 71.0244 321.517 70.8218 321.368C70.6191 321.219 70.3684 321.101 70.0698 321.016C69.7818 320.931 69.4564 320.888 69.0938 320.888C68.3898 320.888 67.8244 321.037 67.3978 321.336C66.9711 321.635 66.7578 322.029 66.7578 322.52C66.7578 322.691 66.7791 322.845 66.8218 322.984C66.8751 323.112 66.9338 323.224 66.9978 323.32C67.0724 323.416 67.1791 323.507 67.3178 323.592C67.4564 323.667 67.5791 323.725 67.6858 323.768C67.8031 323.811 67.9631 323.859 68.1658 323.912C68.3791 323.965 68.5498 324.003 68.6778 324.024C68.8058 324.045 68.9924 324.077 69.2378 324.12C69.5258 324.163 69.7444 324.2 69.8938 324.232C70.0538 324.264 70.2671 324.317 70.5338 324.392C70.8004 324.456 71.0084 324.525 71.1578 324.6C71.3071 324.664 71.4778 324.76 71.6698 324.888C71.8618 325.016 72.0058 325.16 72.1018 325.32C72.2084 325.469 72.2938 325.661 72.3578 325.896C72.4324 326.12 72.4698 326.371 72.4698 326.648C72.4698 327.405 72.1658 328.019 71.5578 328.488C70.9604 328.947 70.1604 329.176 69.1578 329.176ZM86.041 329L83.241 324.296H80.089V329H79.289V317.8H83.417C84.4197 317.8 85.2463 318.109 85.897 318.728C86.5583 319.336 86.889 320.115 86.889 321.064C86.889 321.875 86.633 322.573 86.121 323.16C85.609 323.736 84.937 324.093 84.105 324.232L86.953 329H86.041ZM80.089 318.568V323.528H83.369C84.169 323.528 84.8197 323.299 85.321 322.84C85.8223 322.371 86.073 321.779 86.073 321.064C86.073 320.339 85.817 319.741 85.305 319.272C84.8037 318.803 84.1583 318.568 83.369 318.568H80.089ZM97.033 324.648C97.033 324.723 97.0277 324.824 97.017 324.952H89.177C89.2197 325.624 89.3957 326.221 89.705 326.744C90.025 327.267 90.4517 327.677 90.985 327.976C91.5183 328.264 92.1103 328.408 92.761 328.408C93.465 328.408 94.089 328.243 94.633 327.912C95.1877 327.571 95.625 327.096 95.945 326.488H96.777C96.3823 327.352 95.8383 328.019 95.145 328.488C94.4517 328.947 93.657 329.176 92.761 329.176C91.513 329.176 90.473 328.749 89.641 327.896C88.809 327.032 88.393 325.955 88.393 324.664C88.393 323.395 88.809 322.333 89.641 321.48C90.4837 320.616 91.5237 320.184 92.761 320.184C94.009 320.184 95.033 320.611 95.833 321.464C96.633 322.317 97.033 323.379 97.033 324.648ZM92.761 320.936C91.801 320.936 90.9903 321.245 90.329 321.864C89.6677 322.472 89.289 323.256 89.193 324.216H96.265C96.2223 323.736 96.0997 323.293 95.897 322.888C95.705 322.472 95.4543 322.12 95.145 321.832C94.8357 321.544 94.473 321.325 94.057 321.176C93.6517 321.016 93.2197 320.936 92.761 320.936ZM103.766 320.184C105.035 320.184 106.086 320.611 106.918 321.464C107.75 322.317 108.166 323.389 108.166 324.68C108.166 325.971 107.75 327.043 106.918 327.896C106.086 328.749 105.035 329.176 103.766 329.176C102.976 329.176 102.256 329 101.606 328.648C100.966 328.296 100.448 327.811 100.054 327.192V332.056H99.2696V320.36H99.8456L100.006 322.248C100.4 321.608 100.923 321.107 101.574 320.744C102.235 320.371 102.966 320.184 103.766 320.184ZM103.702 328.408C104.768 328.408 105.648 328.056 106.342 327.352C107.035 326.648 107.382 325.757 107.382 324.68C107.382 323.603 107.035 322.712 106.342 322.008C105.648 321.304 104.768 320.952 103.702 320.952C102.656 320.952 101.782 321.309 101.078 322.024C100.374 322.728 100.022 323.613 100.022 324.68C100.022 325.747 100.374 326.637 101.078 327.352C101.782 328.056 102.656 328.408 103.702 328.408ZM110.442 329V317.304H111.226V329H110.442ZM121.806 320.36H122.446V329H121.774L121.694 327.128C121.31 327.768 120.788 328.269 120.126 328.632C119.476 328.995 118.745 329.176 117.934 329.176C116.665 329.176 115.609 328.749 114.766 327.896C113.924 327.032 113.502 325.96 113.502 324.68C113.502 323.4 113.924 322.333 114.766 321.48C115.609 320.616 116.665 320.184 117.934 320.184C118.745 320.184 119.476 320.371 120.126 320.744C120.788 321.107 121.31 321.608 121.694 322.248L121.806 320.36ZM117.982 328.408C118.676 328.408 119.3 328.248 119.854 327.928C120.42 327.608 120.857 327.165 121.166 326.6C121.486 326.024 121.646 325.384 121.646 324.68C121.646 323.603 121.3 322.712 120.606 322.008C119.913 321.304 119.038 320.952 117.982 320.952C116.926 320.952 116.046 321.309 115.342 322.024C114.649 322.728 114.302 323.613 114.302 324.68C114.302 325.747 114.649 326.637 115.342 327.352C116.046 328.056 116.926 328.408 117.982 328.408ZM129.169 329.176C127.91 329.176 126.854 328.749 126.001 327.896C125.148 327.032 124.721 325.96 124.721 324.68C124.721 323.389 125.142 322.317 125.985 321.464C126.838 320.611 127.9 320.184 129.169 320.184C130.14 320.184 130.988 320.445 131.713 320.968C132.449 321.48 132.961 322.168 133.249 323.032H132.465C132.177 322.381 131.74 321.875 131.153 321.512C130.577 321.139 129.916 320.952 129.169 320.952C128.124 320.952 127.254 321.309 126.561 322.024C125.868 322.728 125.521 323.613 125.521 324.68C125.521 325.736 125.868 326.621 126.561 327.336C127.265 328.051 128.134 328.408 129.169 328.408C129.905 328.408 130.561 328.227 131.137 327.864C131.724 327.491 132.172 326.968 132.481 326.296H133.281C132.972 327.181 132.449 327.885 131.713 328.408C130.977 328.92 130.129 329.176 129.169 329.176ZM143.267 324.648C143.267 324.723 143.262 324.824 143.251 324.952H135.411C135.454 325.624 135.63 326.221 135.939 326.744C136.259 327.267 136.686 327.677 137.219 327.976C137.753 328.264 138.345 328.408 138.995 328.408C139.699 328.408 140.323 328.243 140.867 327.912C141.422 327.571 141.859 327.096 142.179 326.488H143.011C142.617 327.352 142.073 328.019 141.379 328.488C140.686 328.947 139.891 329.176 138.995 329.176C137.747 329.176 136.707 328.749 135.875 327.896C135.043 327.032 134.627 325.955 134.627 324.664C134.627 323.395 135.043 322.333 135.875 321.48C136.718 320.616 137.758 320.184 138.995 320.184C140.243 320.184 141.267 320.611 142.067 321.464C142.867 322.317 143.267 323.379 143.267 324.648ZM138.995 320.936C138.035 320.936 137.225 321.245 136.563 321.864C135.902 322.472 135.523 323.256 135.427 324.216H142.499C142.457 323.736 142.334 323.293 142.131 322.888C141.939 322.472 141.689 322.12 141.379 321.832C141.07 321.544 140.707 321.325 140.291 321.176C139.886 321.016 139.454 320.936 138.995 320.936ZM154.96 320.184C155.536 320.184 156.048 320.328 156.496 320.616C156.944 320.893 157.291 321.283 157.536 321.784C157.781 322.285 157.904 322.867 157.904 323.528V329H157.12V323.736C157.12 322.872 156.912 322.184 156.496 321.672C156.08 321.16 155.52 320.904 154.816 320.904C154.027 320.904 153.376 321.197 152.864 321.784C152.352 322.371 152.096 323.123 152.096 324.04V329H151.328V323.736C151.328 322.861 151.12 322.173 150.704 321.672C150.288 321.16 149.723 320.904 149.008 320.904C148.496 320.904 148.032 321.037 147.616 321.304C147.2 321.571 146.875 321.944 146.64 322.424C146.405 322.893 146.288 323.432 146.288 324.04V329H145.504V320.36H146.096L146.24 321.896C146.432 321.533 146.677 321.229 146.976 320.984C147.275 320.728 147.611 320.531 147.984 320.392C148.357 320.253 148.752 320.184 149.168 320.184C149.819 320.184 150.384 320.365 150.864 320.728C151.344 321.08 151.685 321.565 151.888 322.184C152.165 321.565 152.576 321.08 153.12 320.728C153.664 320.365 154.277 320.184 154.96 320.184ZM168.674 324.648C168.674 324.723 168.668 324.824 168.658 324.952H160.818C160.86 325.624 161.036 326.221 161.346 326.744C161.666 327.267 162.092 327.677 162.626 327.976C163.159 328.264 163.751 328.408 164.402 328.408C165.106 328.408 165.73 328.243 166.274 327.912C166.828 327.571 167.266 327.096 167.586 326.488H168.418C168.023 327.352 167.479 328.019 166.786 328.488C166.092 328.947 165.298 329.176 164.402 329.176C163.154 329.176 162.114 328.749 161.282 327.896C160.45 327.032 160.034 325.955 160.034 324.664C160.034 323.395 160.45 322.333 161.282 321.48C162.124 320.616 163.164 320.184 164.402 320.184C165.65 320.184 166.674 320.611 167.474 321.464C168.274 322.317 168.674 323.379 168.674 324.648ZM164.402 320.936C163.442 320.936 162.631 321.245 161.97 321.864C161.308 322.472 160.93 323.256 160.834 324.216H167.906C167.863 323.736 167.74 323.293 167.538 322.888C167.346 322.472 167.095 322.12 166.786 321.832C166.476 321.544 166.114 321.325 165.698 321.176C165.292 321.016 164.86 320.936 164.402 320.936ZM174.942 320.184C175.966 320.184 176.782 320.525 177.39 321.208C177.998 321.88 178.302 322.765 178.302 323.864V329H177.518V324.024C177.518 323.043 177.273 322.28 176.782 321.736C176.302 321.181 175.63 320.904 174.766 320.904C173.924 320.904 173.198 321.219 172.59 321.848C171.993 322.467 171.694 323.208 171.694 324.072V329H170.91V320.36H171.502L171.646 322.104C171.966 321.517 172.42 321.053 173.006 320.712C173.593 320.36 174.238 320.184 174.942 320.184ZM184.283 328.264H185.227V329H184.187C183.344 329 182.678 328.755 182.187 328.264C181.707 327.773 181.467 327.101 181.467 326.248V321.08H180.027V320.904L182.107 318.84H182.251V320.36H185.163V321.08H182.251V326.232C182.251 326.883 182.427 327.384 182.779 327.736C183.131 328.088 183.632 328.264 184.283 328.264Z" fill="#07162D"/>
<path d="M338.56 129.16C336.896 129.16 335.525 128.621 334.448 127.544C333.381 126.467 332.848 125.091 332.848 123.416C332.848 122.307 333.088 121.315 333.568 120.44C334.059 119.555 334.741 118.867 335.616 118.376C336.491 117.885 337.472 117.64 338.56 117.64C339.808 117.64 340.896 117.971 341.824 118.632C342.763 119.283 343.413 120.173 343.776 121.304H342.944C342.592 120.397 342.032 119.693 341.264 119.192C340.496 118.68 339.595 118.424 338.56 118.424C337.621 118.424 336.779 118.637 336.032 119.064C335.296 119.48 334.715 120.072 334.288 120.84C333.872 121.597 333.664 122.456 333.664 123.416C333.664 124.365 333.872 125.219 334.288 125.976C334.704 126.733 335.285 127.325 336.032 127.752C336.779 128.168 337.621 128.376 338.56 128.376C339.627 128.376 340.549 128.109 341.328 127.576C342.117 127.032 342.683 126.275 343.024 125.304H343.84C343.605 126.093 343.237 126.781 342.736 127.368C342.235 127.944 341.627 128.387 340.912 128.696C340.197 129.005 339.413 129.16 338.56 129.16ZM345.957 129V117.304H346.741V129H345.957ZM357.658 124.648C357.658 124.723 357.653 124.824 357.642 124.952H349.802C349.845 125.624 350.021 126.221 350.33 126.744C350.65 127.267 351.077 127.677 351.61 127.976C352.143 128.264 352.735 128.408 353.386 128.408C354.09 128.408 354.714 128.243 355.258 127.912C355.813 127.571 356.25 127.096 356.57 126.488H357.402C357.007 127.352 356.463 128.019 355.77 128.488C355.077 128.947 354.282 129.176 353.386 129.176C352.138 129.176 351.098 128.749 350.266 127.896C349.434 127.032 349.018 125.955 349.018 124.664C349.018 123.395 349.434 122.333 350.266 121.48C351.109 120.616 352.149 120.184 353.386 120.184C354.634 120.184 355.658 120.611 356.458 121.464C357.258 122.317 357.658 123.379 357.658 124.648ZM353.386 120.936C352.426 120.936 351.615 121.245 350.954 121.864C350.293 122.472 349.914 123.256 349.818 124.216H356.89C356.847 123.736 356.725 123.293 356.522 122.888C356.33 122.472 356.079 122.12 355.77 121.832C355.461 121.544 355.098 121.325 354.682 121.176C354.277 121.016 353.845 120.936 353.386 120.936ZM367.463 120.36H368.103V129H367.431L367.351 127.128C366.967 127.768 366.444 128.269 365.783 128.632C365.132 128.995 364.401 129.176 363.591 129.176C362.321 129.176 361.265 128.749 360.423 127.896C359.58 127.032 359.159 125.96 359.159 124.68C359.159 123.4 359.58 122.333 360.423 121.48C361.265 120.616 362.321 120.184 363.591 120.184C364.401 120.184 365.132 120.371 365.783 120.744C366.444 121.107 366.967 121.608 367.351 122.248L367.463 120.36ZM363.639 128.408C364.332 128.408 364.956 128.248 365.511 127.928C366.076 127.608 366.513 127.165 366.823 126.6C367.143 126.024 367.303 125.384 367.303 124.68C367.303 123.603 366.956 122.712 366.263 122.008C365.569 121.304 364.695 120.952 363.639 120.952C362.583 120.952 361.703 121.309 360.999 122.024C360.305 122.728 359.959 123.613 359.959 124.68C359.959 125.747 360.305 126.637 360.999 127.352C361.703 128.056 362.583 128.408 363.639 128.408ZM375.145 120.184C376.169 120.184 376.985 120.525 377.593 121.208C378.201 121.88 378.505 122.765 378.505 123.864V129H377.721V124.024C377.721 123.043 377.476 122.28 376.985 121.736C376.505 121.181 375.833 120.904 374.969 120.904C374.127 120.904 373.401 121.219 372.793 121.848C372.196 122.467 371.897 123.208 371.897 124.072V129H371.113V120.36H371.705L371.849 122.104C372.169 121.517 372.623 121.053 373.209 120.712C373.796 120.36 374.441 120.184 375.145 120.184ZM381.267 118.568V117.464H382.243V118.568H381.267ZM381.363 129V120.36H382.147V129H381.363ZM389.192 120.184C390.216 120.184 391.032 120.525 391.64 121.208C392.248 121.88 392.552 122.765 392.552 123.864V129H391.768V124.024C391.768 123.043 391.523 122.28 391.032 121.736C390.552 121.181 389.88 120.904 389.016 120.904C388.174 120.904 387.448 121.219 386.84 121.848C386.243 122.467 385.944 123.208 385.944 124.072V129H385.16V120.36H385.752L385.896 122.104C386.216 121.517 386.67 121.053 387.256 120.712C387.843 120.36 388.488 120.184 389.192 120.184ZM402.658 120.36H403.202V127.752C403.202 129.149 402.834 130.243 402.098 131.032C401.362 131.832 400.354 132.232 399.074 132.232C398.082 132.232 397.245 131.992 396.562 131.512C395.89 131.032 395.421 130.36 395.154 129.496H395.938C396.173 130.136 396.568 130.632 397.122 130.984C397.677 131.336 398.328 131.512 399.074 131.512C400.109 131.512 400.925 131.187 401.522 130.536C402.13 129.885 402.434 128.984 402.434 127.832V126.856C402.189 127.229 401.89 127.555 401.538 127.832C401.186 128.109 400.781 128.323 400.322 128.472C399.874 128.621 399.4 128.696 398.898 128.696C397.704 128.696 396.701 128.291 395.89 127.48C395.08 126.669 394.674 125.656 394.674 124.44C394.674 123.245 395.08 122.237 395.89 121.416C396.712 120.595 397.714 120.184 398.898 120.184C399.677 120.184 400.381 120.365 401.01 120.728C401.65 121.091 402.157 121.581 402.53 122.2L402.658 120.36ZM396.466 126.952C397.138 127.613 397.976 127.944 398.978 127.944C399.981 127.944 400.808 127.613 401.458 126.952C402.109 126.291 402.434 125.459 402.434 124.456C402.434 123.443 402.104 122.605 401.442 121.944C400.792 121.272 399.97 120.936 398.978 120.936C397.976 120.936 397.138 121.272 396.466 121.944C395.805 122.616 395.474 123.453 395.474 124.456C395.474 125.448 395.805 126.28 396.466 126.952Z" fill="#07162D"/>
<path d="M340.416 329L337.616 324.296H334.464V329H333.664V317.8H337.792C338.795 317.8 339.621 318.109 340.272 318.728C340.933 319.336 341.264 320.115 341.264 321.064C341.264 321.875 341.008 322.573 340.496 323.16C339.984 323.736 339.312 324.093 338.48 324.232L341.328 329H340.416ZM334.464 318.568V323.528H337.744C338.544 323.528 339.195 323.299 339.696 322.84C340.197 322.371 340.448 321.779 340.448 321.064C340.448 320.339 340.192 319.741 339.68 319.272C339.179 318.803 338.533 318.568 337.744 318.568H334.464ZM351.408 324.648C351.408 324.723 351.403 324.824 351.392 324.952H343.552C343.595 325.624 343.771 326.221 344.08 326.744C344.4 327.267 344.827 327.677 345.36 327.976C345.893 328.264 346.485 328.408 347.136 328.408C347.84 328.408 348.464 328.243 349.008 327.912C349.563 327.571 350 327.096 350.32 326.488H351.152C350.757 327.352 350.213 328.019 349.52 328.488C348.827 328.947 348.032 329.176 347.136 329.176C345.888 329.176 344.848 328.749 344.016 327.896C343.184 327.032 342.768 325.955 342.768 324.664C342.768 323.395 343.184 322.333 344.016 321.48C344.859 320.616 345.899 320.184 347.136 320.184C348.384 320.184 349.408 320.611 350.208 321.464C351.008 322.317 351.408 323.379 351.408 324.648ZM347.136 320.936C346.176 320.936 345.365 321.245 344.704 321.864C344.043 322.472 343.664 323.256 343.568 324.216H350.64C350.597 323.736 350.475 323.293 350.272 322.888C350.08 322.472 349.829 322.12 349.52 321.832C349.211 321.544 348.848 321.325 348.432 321.176C348.027 321.016 347.595 320.936 347.136 320.936ZM358.141 320.184C359.41 320.184 360.461 320.611 361.293 321.464C362.125 322.317 362.541 323.389 362.541 324.68C362.541 325.971 362.125 327.043 361.293 327.896C360.461 328.749 359.41 329.176 358.141 329.176C357.351 329.176 356.631 329 355.981 328.648C355.341 328.296 354.823 327.811 354.429 327.192V332.056H353.645V320.36H354.221L354.381 322.248C354.775 321.608 355.298 321.107 355.949 320.744C356.61 320.371 357.341 320.184 358.141 320.184ZM358.077 328.408C359.143 328.408 360.023 328.056 360.717 327.352C361.41 326.648 361.757 325.757 361.757 324.68C361.757 323.603 361.41 322.712 360.717 322.008C360.023 321.304 359.143 320.952 358.077 320.952C357.031 320.952 356.157 321.309 355.453 322.024C354.749 322.728 354.397 323.613 354.397 324.68C354.397 325.747 354.749 326.637 355.453 327.352C356.157 328.056 357.031 328.408 358.077 328.408ZM372.385 320.36H373.025V329H372.352L372.273 327.128C371.889 327.768 371.366 328.269 370.705 328.632C370.054 328.995 369.323 329.176 368.513 329.176C367.243 329.176 366.187 328.749 365.345 327.896C364.502 327.032 364.081 325.96 364.081 324.68C364.081 323.4 364.502 322.333 365.345 321.48C366.187 320.616 367.243 320.184 368.513 320.184C369.323 320.184 370.054 320.371 370.705 320.744C371.366 321.107 371.889 321.608 372.273 322.248L372.385 320.36ZM368.561 328.408C369.254 328.408 369.878 328.248 370.433 327.928C370.998 327.608 371.435 327.165 371.745 326.6C372.065 326.024 372.225 325.384 372.225 324.68C372.225 323.603 371.878 322.712 371.185 322.008C370.491 321.304 369.617 320.952 368.561 320.952C367.505 320.952 366.625 321.309 365.921 322.024C365.227 322.728 364.881 323.613 364.881 324.68C364.881 325.747 365.227 326.637 365.921 327.352C366.625 328.056 367.505 328.408 368.561 328.408ZM375.939 318.568V317.464H376.915V318.568H375.939ZM376.035 329V320.36H376.819V329H376.035ZM383.512 320.328H384.264V321.08H383.464C382.6 321.08 381.907 321.368 381.384 321.944C380.872 322.52 380.616 323.267 380.616 324.184V329H379.832V320.36H380.424L380.552 322.072C381.171 320.909 382.157 320.328 383.512 320.328Z" fill="#07162D"/>
<rect x="32" y="152" width="96" height="96" rx="15" fill="#F2FAFF"/>
<path d="M78.866 203.078C78.1747 202.606 77.3995 202.268 76.585 202.071L76.627 200.461L73.7621 200.385L73.7232 201.987C72.8947 202.139 72.1066 202.444 71.3904 202.883L70.2872 201.719L68.2103 203.69L69.3105 204.854C68.8275 205.557 68.4915 206.333 68.2991 207.137L66.6943 207.094L66.6199 209.957L68.2247 210.001C68.3747 210.813 68.6688 211.606 69.114 212.334L67.9549 213.436L69.9263 215.511L71.0874 214.409C71.7794 214.882 72.555 215.221 73.3695 215.418L73.3283 217.027L76.191 217.102L76.2329 215.501C77.061 215.349 77.8483 215.044 78.5638 214.605L79.6678 215.768L81.7488 213.793L80.6425 212.637C81.121 211.943 81.465 211.17 81.66 210.349L83.2603 210.401L83.3359 207.531L81.7334 207.487C81.5814 206.66 81.2802 205.873 80.841 205.156L81.9999 204.052L80.0296 201.976L78.866 203.078ZM77.3568 211.25C76.7127 211.861 75.8683 212.198 74.979 212.198C74.0194 212.198 73.1282 211.816 72.4709 211.123C71.159 209.74 71.2168 207.547 72.599 206.236C73.2423 205.626 74.0867 205.29 74.9763 205.29C75.936 205.29 76.8264 205.671 77.4845 206.364C78.796 207.747 78.7386 209.938 77.3567 211.25L77.3568 211.25Z" fill="#647795"/>
<path d="M63.0733 189.603L63 192.466L64.6048 192.51C64.7549 193.323 65.0489 194.114 65.4941 194.842L64.3327 195.942L66.3037 198.02L67.4682 196.919C68.1595 197.391 68.9339 197.73 69.7473 197.926L69.7084 199.537L72.5729 199.612L72.6095 198.011C73.4388 197.859 74.2272 197.553 74.9438 197.115L76.046 198.278L78.124 196.306L77.0234 195.144C77.5004 194.451 77.8428 193.68 78.0382 192.861L79.6396 192.904L79.7148 190.04L78.113 189.997C77.9611 189.169 77.6591 188.381 77.2195 187.665L78.3818 186.564L76.4081 184.486L75.2455 185.588C74.5534 185.115 73.7786 184.777 72.9645 184.581L73.0065 182.971L70.1454 182.895L70.0993 184.496C69.2723 184.649 68.4869 184.954 67.7714 185.391L66.664 184.231L64.5867 186.205L65.6911 187.36C65.2073 188.065 64.8717 188.841 64.6789 189.646L63.0733 189.603ZM68.9777 188.746C69.621 188.135 70.4654 187.799 71.3551 187.799C72.3151 187.799 73.2059 188.18 73.864 188.874C74.4978 189.543 74.8342 190.419 74.81 191.342C74.7858 192.268 74.4037 193.126 73.7358 193.76C73.0925 194.371 72.2482 194.707 71.3593 194.707C70.3992 194.707 69.5084 194.324 68.8503 193.63C68.2165 192.963 67.8802 192.087 67.9043 191.163C67.9285 190.239 68.3095 189.381 68.9777 188.746Z" fill="#647795"/>
<path d="M80.3597 195.154L80.2842 198.017L81.8856 198.061C82.0379 198.889 82.3399 199.677 82.7795 200.394L81.618 201.493L83.5902 203.572L84.7539 202.47C85.4448 202.941 86.2193 203.28 87.0318 203.476L86.9952 205.087L89.8552 205.162L89.8972 203.562C90.7245 203.409 91.5107 203.105 92.2265 202.667L93.3343 203.824L95.4123 201.855L94.3079 200.697C94.7853 200.003 95.1281 199.231 95.3235 198.411L96.9253 198.455L96.9998 195.591L95.398 195.548C95.246 194.719 94.944 193.932 94.5045 193.216L95.6659 192.115L93.6915 190.036L92.5312 191.139C91.8392 190.666 91.0636 190.328 90.2487 190.13L90.2925 188.522L87.4269 188.445L87.3857 190.046C86.5576 190.198 85.7703 190.504 85.0548 190.942L83.9516 189.78L81.8739 191.75L82.9745 192.912C82.4975 193.606 82.1551 194.377 81.9597 195.196L80.3597 195.154ZM86.2623 194.296C86.9064 193.687 87.7507 193.35 88.64 193.35C89.5997 193.35 90.4901 193.732 91.1482 194.425C91.782 195.093 92.1184 195.97 92.0942 196.894C92.07 197.818 91.6883 198.675 91.0208 199.309C90.3767 199.92 89.5324 200.258 88.6423 200.258C87.6834 200.258 86.7926 199.875 86.1345 199.183C84.823 197.801 84.8805 195.61 86.2623 194.297L86.2623 194.296Z" fill="#647795"/>
<rect x="332" y="32" width="48" height="48" rx="15" fill="#F2FAFF"/>
<path d="M354.954 64.2571C354.954 65.6783 353.802 66.8305 352.381 66.8305C350.959 66.8305 349.807 65.6783 349.807 64.2571C349.807 62.8358 350.959 61.6836 352.381 61.6836C353.802 61.6836 354.954 62.8358 354.954 64.2571" fill="#647795"/>
<path d="M366.879 66.302L366.741 65.7505C366.627 65.337 366.328 65.0152 365.914 64.9233L364.375 64.5098L364.375 53.1362C364.375 51.7346 363.777 50.379 362.72 49.4369L358.607 45.8296C357.711 45.0254 356.379 44.9565 355.391 45.6229C354.725 46.0824 354.311 46.8177 354.265 47.6218C354.219 48.4261 354.541 49.2073 355.138 49.7357L357.298 51.6657C357.574 51.9185 357.734 52.2631 357.757 52.6308C357.757 52.9984 357.62 53.3661 357.367 53.6187L355.827 55.1352C355.368 54.8365 354.862 54.5837 354.334 54.377L353.3 53.9864C352.634 53.7336 351.852 53.8255 351.255 54.2392C350.658 54.6527 350.313 55.342 350.313 56.0543V61.0862C350.91 60.6956 351.623 60.4658 352.381 60.4658C354.472 60.4658 356.149 62.1661 356.149 64.234C356.149 64.9922 355.919 65.7045 355.529 66.3018H357.413C358.447 66.3018 359.297 65.4517 359.297 64.4177L359.297 61.5459C359.297 59.5009 358.47 57.5938 357.068 56.1693L358.47 54.7677C359.044 54.1932 359.366 53.389 359.343 52.5849C359.32 51.7577 358.952 50.9994 358.355 50.4481L356.218 48.5409C355.988 48.3341 355.873 48.0354 355.873 47.7366C355.896 47.4149 356.057 47.1392 356.31 46.9784C356.701 46.7256 357.206 46.7485 357.551 47.0473L361.641 50.6776C362.353 51.2981 362.766 52.2171 362.766 53.1591V64.5327L361.227 64.9462C360.813 65.0612 360.515 65.3828 360.4 65.7734L360.262 66.3249C360.239 66.4398 360.262 66.5547 360.331 66.6466C360.4 66.7384 360.515 66.7844 360.63 66.7844H366.535C366.65 66.7844 366.765 66.7384 366.833 66.6466C366.902 66.5318 366.925 66.4169 366.879 66.3021L366.879 66.302ZM356.402 59.5008C356.31 59.5468 356.195 59.5926 356.103 59.5926C355.896 59.5926 355.69 59.4777 355.575 59.2939C355.046 58.3749 354.219 57.6856 353.231 57.3179L352.611 57.088C352.289 56.9731 352.128 56.6285 352.266 56.3069C352.381 55.9852 352.725 55.8243 353.047 55.9623L353.668 56.1921C354.908 56.6516 355.965 57.5477 356.631 58.6966C356.793 58.9724 356.678 59.3401 356.402 59.5008L356.402 59.5008Z" fill="#647795"/>
<path d="M350.382 53.2736C350.497 53.2507 350.566 53.1358 350.566 53.0209C350.566 52.906 350.497 52.7911 350.382 52.7681C349.233 52.4925 348.36 51.5964 348.084 50.4475C348.061 50.3326 347.946 50.2637 347.831 50.2637C347.716 50.2637 347.601 50.3326 347.579 50.4475C347.303 51.5964 346.407 52.4925 345.281 52.7681C345.166 52.7911 345.097 52.906 345.097 53.0209C345.097 53.1358 345.166 53.2507 345.281 53.2736C346.407 53.5493 347.326 54.4454 347.579 55.5713C347.601 55.6863 347.716 55.7552 347.831 55.7552C347.946 55.7552 348.061 55.6863 348.084 55.5713C348.337 54.4683 349.256 53.5493 350.382 53.2736V53.2736Z" fill="#647795"/>
<path d="M347.096 47.6895C347.923 47.8963 348.59 48.5627 348.796 49.3899C348.819 49.5048 348.911 49.5737 349.026 49.5737C349.141 49.5737 349.233 49.5048 349.256 49.3899C349.463 48.5627 350.129 47.8965 350.956 47.6895C351.071 47.6666 351.14 47.5746 351.14 47.4597C351.14 47.3448 351.071 47.253 350.956 47.2299C350.106 47.0231 349.463 46.3798 349.256 45.5295C349.233 45.4146 349.141 45.3457 349.026 45.3457C348.911 45.3457 348.82 45.4146 348.796 45.5295C348.59 46.3796 347.946 47.0461 347.096 47.2528C346.981 47.2757 346.912 47.3677 346.912 47.4826C346.935 47.5746 347.004 47.6666 347.096 47.6896V47.6895Z" fill="#647795"/>
<path d="M350.221 50.2188C350.129 50.2417 350.06 50.3337 350.06 50.4255C350.06 50.5174 350.129 50.6094 350.221 50.6323C350.91 50.7932 351.462 51.3445 351.623 52.0339C351.646 52.1257 351.738 52.1948 351.829 52.1948C351.921 52.1948 352.013 52.1259 352.036 52.0339C352.197 51.3445 352.748 50.7932 353.438 50.6323C353.53 50.6094 353.599 50.5174 353.599 50.4255C353.599 50.3335 353.553 50.2417 353.461 50.2188C352.771 50.0578 352.22 49.5065 352.059 48.8172C352.036 48.7253 351.944 48.6562 351.852 48.6562C351.76 48.6562 351.668 48.7252 351.646 48.8172C351.462 49.5064 350.91 50.0578 350.221 50.2188H350.221Z" fill="#647795"/>
<rect x="332" y="232" width="48" height="48" rx="15" fill="#F2FAFF"/>
<g clip-path="url(#clip0_153_3453)">
<path d="M355.174 244.702C354.947 244.309 354.444 244.174 354.051 244.401L346.93 248.513C346.537 248.74 346.402 249.243 346.629 249.636L348.685 253.196L350.821 251.963L354.463 258.272L358.092 254.4L355.219 249.424L357.23 248.263L355.174 244.702ZM354.161 246.237L354.983 247.661L354.271 248.072L353.449 246.648L354.161 246.237ZM352.025 247.47L352.847 248.894L351.423 249.716L350.601 248.292L352.025 247.47ZM349.176 249.115L349.999 250.539L349.287 250.95L348.464 249.526L349.176 249.115Z" fill="#647795"/>
<path d="M356.514 260.789L359.744 257.342C360.054 257.01 360.037 256.49 359.705 256.18C359.374 255.869 358.853 255.886 358.543 256.218L355.313 259.665C355.003 259.997 355.021 260.517 355.352 260.827C355.683 261.137 356.204 261.12 356.514 260.789Z" fill="#647795"/>
<path d="M358.159 263.639L361.389 260.191C361.699 259.859 361.681 259.339 361.35 259.029C361.018 258.719 360.498 258.736 360.187 259.067L356.957 262.515C356.647 262.847 356.665 263.367 356.996 263.677C357.328 263.987 357.848 263.969 358.159 263.639Z" fill="#647795"/>
<path d="M359.803 266.486L363.033 263.039C363.343 262.707 363.326 262.187 362.994 261.877C362.662 261.566 362.142 261.584 361.832 261.915L358.602 265.362C358.292 265.694 358.309 266.214 358.641 266.524C358.973 266.835 359.493 266.817 359.803 266.486Z" fill="#647795"/>
</g>
<defs>
<filter id="filter0_b_153_3453" x="-30" y="90" width="330" height="310" filterUnits="userSpaceOnUse" color-interpolation-filters="sRGB">
<feFlood flood-opacity="0" result="BackgroundImageFix"/>
<feGaussianBlur in="BackgroundImageFix" stdDeviation="15"/>
<feComposite in2="SourceAlpha" operator="in" result="effect1_backgroundBlur_153_3453"/>
<feBlend mode="normal" in="SourceGraphic" in2="effect1_backgroundBlur_153_3453" result="shape"/>
</filter>
<filter id="filter1_b_153_3453" x="270" y="-30" width="230" height="230" filterUnits="userSpaceOnUse" color-interpolation-filters="sRGB">
<feFlood flood-opacity="0" result="BackgroundImageFix"/>
<feGaussianBlur in="BackgroundImageFix" stdDeviation="15"/>
<feComposite in2="SourceAlpha" operator="in" result="effect1_backgroundBlur_153_3453"/>
<feBlend mode="normal" in="SourceGraphic" in2="effect1_backgroundBlur_153_3453" result="shape"/>
</filter>
<filter id="filter2_b_153_3453" x="270" y="170" width="230" height="230" filterUnits="userSpaceOnUse" color-interpolation-filters="sRGB">
<feFlood flood-opacity="0" result="BackgroundImageFix"/>
<feGaussianBlur in="BackgroundImageFix" stdDeviation="15"/>
<feComposite in2="SourceAlpha" operator="in" result="effect1_backgroundBlur_153_3453"/>
<feBlend mode="normal" in="SourceGraphic" in2="effect1_backgroundBlur_153_3453" result="shape"/>
</filter>
<filter id="filter3_b_153_3453" x="-30" y="-30" width="330" height="150" filterUnits="userSpaceOnUse" color-interpolation-filters="sRGB">
<feFlood flood-opacity="0" result="BackgroundImageFix"/>
<feGaussianBlur in="BackgroundImageFix" stdDeviation="15"/>
<feComposite in2="SourceAlpha" operator="in" result="effect1_backgroundBlur_153_3453"/>
<feBlend mode="normal" in="SourceGraphic" in2="effect1_backgroundBlur_153_3453" result="shape"/>
</filter>
<linearGradient id="paint0_linear_153_3453" x1="4.33316e-06" y1="120" x2="313.809" y2="201.67" gradientUnits="userSpaceOnUse">
<stop stop-color="#F0E9FF"/>
<stop offset="1" stop-color="#DCE6FF"/>
</linearGradient>
<linearGradient id="paint1_linear_153_3453" x1="300" y1="2.72829e-06" x2="499.388" y2="48.0478" gradientUnits="userSpaceOnUse">
<stop stop-color="#F0E9FF"/>
<stop offset="1" stop-color="#DCE6FF"/>
</linearGradient>
<linearGradient id="paint2_linear_153_3453" x1="300" y1="200" x2="499.388" y2="248.048" gradientUnits="userSpaceOnUse">
<stop stop-color="#F0E9FF"/>
<stop offset="1" stop-color="#DCE6FF"/>
</linearGradient>
<linearGradient id="paint3_linear_153_3453" x1="4.33316e-06" y1="1.44439e-06" x2="220.056" y2="159.085" gradientUnits="userSpaceOnUse">
<stop stop-color="#F0E9FF"/>
<stop offset="1" stop-color="#DCE6FF"/>
</linearGradient>
<clipPath id="clip0_153_3453">
<rect width="24" height="24" fill="white" transform="translate(344 244)"/>
</clipPath>
</defs>
</svg>
