<svg width="585" height="463" viewBox="0 0 585 463" fill="none" xmlns="http://www.w3.org/2000/svg">
<g clip-path="url(#clip0_46_3398)">
<g clip-path="url(#clip1_46_3398)">
<path d="M31.3702 432.44L30.063 433.929C28.9064 435.286 28.3276 437.042 28.4497 438.82C28.5718 440.598 29.3853 442.259 30.7166 443.446L57.6193 467.193C58.2763 467.772 59.0419 468.214 59.8715 468.494C60.7012 468.773 61.5783 468.886 62.4518 468.824C63.3253 468.762 64.178 468.527 64.9597 468.133C65.7414 467.738 66.4366 467.193 67.0051 466.528L68.3123 465.026C69.4657 463.667 70.0429 461.912 69.9208 460.135C69.7987 458.358 68.9871 456.698 67.6587 455.509L40.7694 431.774C40.1121 431.194 39.3455 430.751 38.5146 430.469C37.6837 430.188 36.8049 430.076 35.9298 430.138C35.0548 430.2 34.2007 430.435 33.4178 430.831C32.635 431.226 31.9389 431.773 31.3702 432.44V432.44Z" fill="#F7B686"/>
<path fill-rule="evenodd" clip-rule="evenodd" d="M103.474 229.864C74.011 298.034 61.1293 384.109 55.5142 444.303L48.0437 444.022C49.0018 447.685 50.4694 453.629 51.5721 459.591C51.7698 459.816 51.9494 460.056 52.1087 460.311C52.4959 460.929 52.7565 461.618 52.875 462.337L60.509 504.284C60.7821 505.732 60.4729 507.229 59.6483 508.451C58.8236 509.673 57.5503 510.521 56.1038 510.812C54.6583 511.066 53.1706 510.738 51.9674 509.898C50.7641 509.059 49.9433 507.777 49.6852 506.334L45.3731 482.611C44.4642 483.038 43.4928 483.454 42.4716 483.857L48.5477 517.262C48.8241 518.712 48.5145 520.212 47.6866 521.436C46.8588 522.659 45.5797 523.505 44.1291 523.789C43.4138 523.919 42.6799 523.905 41.9698 523.75C41.2597 523.594 40.5873 523.3 39.9917 522.884C39.3961 522.467 38.8893 521.937 38.5 521.324C38.1107 520.711 37.8469 520.027 37.7239 519.311L31.8745 487.154C30.8749 487.397 29.8684 487.626 28.8621 487.838L33.6716 514.311C33.9483 515.76 33.6405 517.259 32.8153 518.481C31.9901 519.704 30.7145 520.551 29.2664 520.839C27.8209 521.093 26.3332 520.765 25.1299 519.925C23.9267 519.086 23.1058 517.804 22.8477 516.361L17.9596 489.455C16.9106 489.534 15.8986 489.584 14.9347 489.602L18.9912 511.909C19.2679 513.357 18.9602 514.856 18.135 516.079C17.3098 517.302 16.0342 518.149 14.5861 518.436C13.146 518.687 11.665 518.358 10.4672 517.522C9.26927 516.685 8.45175 515.408 8.19356 513.972L1.67507 478.115C-1.95453 464.767 1.21394 449.577 3.19228 442.339L2.79848 442.325C9.47054 341.173 25.9192 262.719 53.3869 201.967C61.2877 184.481 66.3745 173.474 71.1308 167.73C73.9186 164.344 91.6225 163.228 102.985 170.05C115.087 177.329 122.763 192.584 118.482 199.52C113.158 208.142 110.304 214.077 103.474 229.864Z" fill="url(#paint0_linear_46_3398)"/>
<path d="M41.763 355.715C41.763 355.715 39.5537 430.953 63.2406 575.292C80.3391 679.5 100.535 784.503 110.444 834.831C113.987 852.848 128.929 866.008 146.628 866.726L156.145 867.117C175.296 867.888 190.839 851.229 189.44 831.398L165.4 490.837L159.478 378.784L41.763 355.715Z" fill="url(#paint1_linear_46_3398)"/>
<path d="M113.581 409.45L247.114 844.192C252.696 862.391 268.866 874.872 287.285 875.185L295.311 875.316C314.253 875.655 328.737 857.887 325.286 838.565L252.238 430.012C251.75 427.662 250.637 425.486 249.015 423.715C247.393 421.943 245.323 420.641 243.022 419.947C217.976 412.727 111.124 391.473 113.581 409.45Z" fill="url(#paint2_linear_46_3398)"/>
<path fill-rule="evenodd" clip-rule="evenodd" d="M239.995 195.4L286.376 152.318C286.376 152.318 262.901 122.717 179.917 123.458C176.404 123.484 173.335 123.349 170.354 123.217C165.738 123.013 161.336 122.819 155.836 123.252C150.652 123.476 145.484 124.007 140.354 124.842C86.9347 135.38 58.8701 177.863 58.8701 177.863C58.8701 177.863 61.3922 191.165 74.9476 200.396C55.9513 246.518 42.6832 313.959 37.2864 404.42C37.2864 404.42 137.24 380.246 254.328 436.652C254.326 436.649 254.335 436.34 254.352 435.744C254.721 422.912 258.911 277.214 239.995 195.4Z" fill="url(#paint3_linear_46_3398)"/>
<path d="M113.137 111.947C112.798 111.856 104.68 109.858 102.222 103.97C100.915 100.837 101.49 97.2075 103.934 93.1865C105.006 91.4457 106 89.8226 106.915 88.3169C113.255 78.0684 115.399 74.6218 113.739 66.6059L114.458 66.4492C116.183 74.7524 113.83 78.5645 107.556 88.6432C106.64 90.1185 105.647 91.7242 104.562 93.4998C102.248 97.3119 101.699 100.719 102.915 103.618C105.216 109.153 113.229 111.138 113.373 111.164L113.137 111.947Z" fill="#E28569"/>
<path d="M114.104 66.5273C115.481 75.6932 113.489 85.0469 108.496 92.8599C100.078 106.32 109.241 116.164 120.627 110.994C132.013 105.824 136.314 120.537 150.929 112.391C165.543 104.244 114.104 66.5273 114.104 66.5273Z" fill="#E28569"/>
<path d="M181.413 123.422C178.307 123.088 175.346 121.93 172.838 120.069C170.331 118.207 168.367 115.709 167.152 112.834L159.308 94.3743L157.034 89.0216L143.648 57.5061L145.962 90.1444L147.36 109.727L147.752 115.315C147.918 117.5 147.268 119.668 145.929 121.404C144.589 123.139 142.655 124.318 140.497 124.715H140.419C138.04 128.631 134.746 136.621 144.576 139.781C156.132 143.514 174.812 134.297 181.518 123.383L181.413 123.422Z" fill="url(#paint4_linear_46_3398)"/>
<path d="M159.335 93.8396C159.335 94.0224 159.335 94.1921 159.335 94.3749C158.564 104.897 147.452 109.819 147.452 109.819L146.054 90.2363C149.452 88.9308 154.289 87.6253 157.126 89.1005C158.512 89.7533 159.44 91.2285 159.335 93.8396Z" fill="#2F1A31"/>
<path d="M142.185 100.576C158.906 100.576 172.46 83.6307 172.46 62.7282C172.46 41.8257 158.906 24.8809 142.185 24.8809C125.464 24.8809 111.909 41.8257 111.909 62.7282C111.909 83.6307 125.464 100.576 142.185 100.576Z" fill="url(#paint5_linear_46_3398)"/>
<path d="M168.406 68.4346C164.968 71.7506 160.184 72.1031 157.687 69.2048C155.19 66.3065 155.974 61.2541 159.399 57.938C162.824 54.622 167.622 54.2825 170.105 57.1808C172.589 60.0791 171.831 65.1185 168.406 68.4346Z" fill="#F7B686"/>
<path d="M125.883 87.2201C132.903 87.1836 139.87 86.0063 146.511 83.7344C146.511 83.7344 147.374 94.0611 136.171 94.7531C129.714 95.21 125.883 87.2201 125.883 87.2201Z" fill="#B7715E"/>
<path d="M125.883 87.2201C125.883 87.2201 128.38 89.3221 134.224 89.2959C140.067 89.2698 146.511 83.7344 146.511 83.7344C146.511 83.7344 134.106 87.2462 125.883 87.2201Z" fill="#F2FAFF"/>
<path d="M139.256 63.0942C139.152 63.0668 139.056 63.0145 138.976 62.9417C138.896 62.8689 138.836 62.7779 138.799 62.6764C138.73 62.5068 138.731 62.3167 138.802 62.1478C138.873 61.979 139.008 61.8451 139.178 61.7756C140.673 61.0581 142.368 60.8664 143.986 61.2313C145.604 61.5963 147.052 62.4965 148.093 63.7861C148.218 63.9212 148.288 64.0983 148.288 64.2822C148.288 64.4661 148.218 64.6433 148.093 64.7783C147.955 64.8919 147.782 64.954 147.603 64.954C147.424 64.954 147.251 64.8919 147.113 64.7783C144.903 63.4097 142.299 62.817 139.714 63.0942C139.567 63.1531 139.403 63.1531 139.256 63.0942V63.0942Z" fill="#060633"/>
<path d="M144.707 70.7567C144.707 72.4277 143.831 73.8116 142.641 73.8508C141.451 73.8899 140.432 72.5452 140.38 70.9002C140.327 69.2553 141.255 67.8584 142.445 67.8192C143.634 67.78 144.654 69.0986 144.707 70.7567Z" fill="#060633"/>
<path d="M114.68 66.7624C114.575 66.7739 114.468 66.7611 114.368 66.7248C114.269 66.6886 114.179 66.6301 114.105 66.5536C113.977 66.42 113.906 66.2423 113.906 66.0575C113.906 65.8727 113.977 65.695 114.105 65.5614C115.213 64.3301 116.703 63.5054 118.335 63.219C119.968 62.9326 121.65 63.2011 123.112 63.9817C123.277 64.0636 123.404 64.2045 123.47 64.3763C123.535 64.548 123.534 64.7381 123.465 64.9086C123.379 65.0661 123.24 65.188 123.072 65.2525C122.905 65.3171 122.719 65.3201 122.55 65.2611C119.981 64.8491 117.349 65.3088 115.073 66.5666C114.964 66.6697 114.828 66.7379 114.68 66.7624V66.7624Z" fill="#060633"/>
<path d="M122.601 71.7227C123.268 73.2371 122.941 74.8691 121.843 75.3652C120.745 75.8613 119.333 75.0387 118.667 73.5113C118 71.9838 118.327 70.365 119.412 69.8689C120.497 69.3728 121.922 70.1952 122.601 71.7227Z" fill="#060633"/>
<path d="M129.334 31.7348C129.334 31.7348 129.988 44.8684 146.158 47.114C162.328 49.3595 173.505 56.2527 171.335 68.1069C169.165 79.9611 143.073 104.427 162.25 113.918C181.427 123.409 177.335 105.719 198.107 109.819C218.879 113.918 222.644 85.7968 208.33 69.4777C194.016 53.1586 199.82 9.94552 146.158 11.8646C92.4966 13.7838 112.17 57.1795 112.17 57.1795C112.17 57.1795 129.36 46.2392 129.334 31.7348Z" fill="url(#paint6_linear_46_3398)"/>
<path d="M167.767 116.371C163.74 114.713 161.231 112.272 160.394 109.099C157.989 100.287 168.132 86.9054 177.087 75.1557C179.44 72.0616 181.662 69.1372 183.623 66.3564C189.074 58.6538 189.506 49.502 184.747 42.4652C179.584 34.8279 169.871 31.6162 159.401 34.0837C148.93 36.5511 141.57 34.3187 137.334 31.9948C134.684 30.626 132.378 28.6756 130.589 26.2897L130.955 26.0547C131.034 26.1722 139.387 38.3397 159.296 33.6529C169.963 31.1463 179.845 34.4362 185.113 42.2302C189.976 49.4106 189.545 58.7582 183.989 66.6045C182.015 69.3983 179.793 72.3227 177.453 75.4168C168.564 87.1666 158.485 100.326 160.838 108.93C161.675 112.011 164.002 114.295 167.936 115.901L167.767 116.371Z" fill="#F2FAFF"/>
<path d="M113.556 90.9409C109.007 89.2437 105.007 84.1651 102.863 77.3372C99.373 66.201 101.83 53.8376 108.34 49.7513C109.487 48.9966 110.798 48.53 112.164 48.3914C113.53 48.2527 114.909 48.4461 116.184 48.955C120.733 50.6522 124.733 55.7438 126.877 62.5587C130.367 73.6687 127.923 86.0581 121.4 90.1575C120.024 91.0562 118.416 91.5369 116.772 91.5414C115.673 91.5357 114.583 91.3324 113.556 90.9409ZM125.609 62.9894C123.583 56.5532 119.896 51.8011 115.739 50.2344C114.651 49.8085 113.478 49.6456 112.314 49.7591C111.151 49.8725 110.031 50.2591 109.046 50.8872C103.02 54.6863 100.837 66.3577 104.157 76.9195C106.17 83.3296 109.857 88.1078 114.027 89.6614C115.11 90.0871 116.28 90.2499 117.439 90.1365C118.598 90.023 119.713 89.6365 120.694 89.0086C126.72 85.2095 128.916 73.5251 125.609 62.9894V62.9894Z" fill="#6F4975"/>
<g opacity="0.3">
<path d="M161.91 55.3244C164.328 66.1342 160.459 77.7403 153.23 81.2522C146.001 84.7641 138.197 78.8369 135.765 68.0272C133.334 57.2174 137.229 45.6112 144.445 42.1124C151.661 38.6136 159.478 44.5668 161.91 55.3244Z" fill="#F2FAFF"/>
</g>
<g opacity="0.3">
<path d="M127.176 63.4586C129.607 74.3206 126.365 86.0834 119.934 89.752C113.502 93.4205 106.312 87.5978 103.881 76.6967C101.45 65.7955 104.678 54.0587 111.11 50.4033C117.542 46.7478 124.744 52.5966 127.176 63.4586Z" fill="#F2FAFF"/>
</g>
<path d="M143.164 81.397C138.51 79.1124 134.955 73.9425 133.412 67.2059C130.798 55.665 135.086 43.1972 143.034 39.4112C144.565 38.6575 146.251 38.272 147.958 38.2856C149.665 38.2992 151.345 38.7115 152.864 39.4895C157.505 41.7742 161.047 46.9441 162.577 53.6545C165.191 65.2215 160.929 77.6893 152.968 81.4492C151.466 82.1978 149.811 82.5909 148.132 82.5981C146.406 82.5762 144.708 82.1656 143.164 81.397V81.397ZM143.596 40.6253C136.21 44.1633 132.223 55.9391 134.72 66.8925C136.158 73.133 139.53 78.094 143.752 80.1698C145.094 80.8336 146.568 81.1843 148.065 81.1956C149.562 81.2069 151.042 80.8785 152.393 80.2351C159.805 76.6971 163.779 64.9212 161.269 53.9678C159.858 47.7535 156.485 42.8055 152.276 40.7036C150.904 40.0163 149.392 39.6545 147.857 39.6461C146.381 39.6686 144.926 40.0117 143.596 40.6514V40.6253Z" fill="#6F4975"/>
<path d="M125.753 67.5058C126.045 67.4975 126.325 67.3918 126.55 67.2056V67.2056C127.854 66.3167 129.332 65.713 130.887 65.434C132.441 65.1551 134.037 65.2071 135.57 65.5866C135.898 65.6377 136.233 65.5622 136.507 65.3756C136.782 65.1889 136.975 64.905 137.047 64.5814C137.099 64.2557 137.025 63.9225 136.84 63.6488C136.656 63.3752 136.375 63.1813 136.053 63.1062C134.158 62.631 132.181 62.5752 130.262 62.9428C128.343 63.3104 126.527 64.0924 124.942 65.2342C124.688 65.4562 124.53 65.7677 124.501 66.1035C124.471 66.4393 124.573 66.7734 124.785 67.0358C124.899 67.183 125.046 67.302 125.214 67.3835C125.382 67.465 125.566 67.5068 125.753 67.5058V67.5058Z" fill="#6F4975"/>
<path d="M291.953 150.929C296.542 157.6 287.208 166.596 268.083 180.617C248.959 194.638 240.632 199.599 236.043 192.941C231.455 186.283 236.932 174.925 255.926 160.747C269.874 150.316 287.365 144.258 291.953 150.929Z" fill="#2F1A31"/>
<path fill-rule="evenodd" clip-rule="evenodd" d="M231.619 326.265C253.988 312.691 266.95 296.632 270.2 278.428C274.88 252.147 260.239 222.12 247.454 202.537C240.918 192.511 240.173 182.784 250.552 170.525C254.853 165.434 259.075 161.896 272.775 156.073C279.429 153.266 286.043 152.366 289.769 157.209C295.599 164.781 299.756 171.009 307.834 186.14C327.024 222.094 334.201 257.944 328.593 289.916C321.717 329.082 297.22 360.872 255.532 384.45C254.635 384.944 253.667 385.294 252.666 385.49L252.695 385.611C235.218 393.392 219.427 370.989 215.949 365.049C214.199 362.058 208.815 363.445 203.138 364.907C197.538 366.349 191.654 367.864 188.694 365.323C182.733 360.205 211.492 352.855 211.492 352.855C211.492 352.855 187.831 358.077 182.733 353.534C177.635 348.991 208.877 342.372 208.877 342.372C208.877 342.372 185.831 345.57 182.354 339.63C178.876 333.69 205.4 330.269 205.4 330.269C205.4 330.269 192.929 331.275 183.674 329.473C174.419 327.671 193.191 315.882 208.08 315.595C216.304 315.437 225.254 321.133 231.619 326.265Z" fill="url(#paint7_linear_46_3398)"/>
<path d="M216.002 331.601C212.707 328.795 205.622 330.779 205.544 330.792L205.23 329.735C205.544 329.643 212.969 327.567 216.708 330.766L216.002 331.601Z" fill="#DD8964"/>
<path d="M221.702 343.952C216.029 340.805 209.1 342.868 209.035 342.894L208.708 341.837C209.009 341.745 216.159 339.617 222.238 342.985L221.702 343.952Z" fill="#DD8964"/>
<path d="M223.388 354.28C220.133 350.99 211.715 353.366 211.623 353.392L211.322 352.334C211.688 352.217 220.473 349.723 224.159 353.496L223.388 354.28Z" fill="#DD8964"/>
<g opacity="0.5">
<path d="M308.135 286.979C307.508 286.981 306.883 286.898 306.279 286.731C300.867 285.269 298.148 277.801 300.083 269.759C301.246 264.929 303.9 260.882 307.207 258.936C308.098 258.364 309.097 257.981 310.143 257.81C311.189 257.64 312.258 257.685 313.286 257.944C318.684 259.419 321.417 266.874 319.482 274.916C318.318 279.733 315.652 283.78 312.358 285.739C311.086 286.521 309.628 286.949 308.135 286.979ZM311.442 260.398C310.434 260.424 309.45 260.717 308.593 261.247C305.9 262.84 303.717 266.247 302.723 270.386C301.181 276.783 303.142 283.076 306.998 284.133C307.666 284.281 308.356 284.296 309.03 284.175C309.703 284.054 310.345 283.8 310.92 283.428C313.599 281.835 315.795 278.428 316.776 274.289C318.318 267.892 316.371 261.6 312.514 260.542C312.163 260.455 311.804 260.407 311.442 260.398V260.398Z" fill="#E08B65"/>
</g>
</g>
<path fill-rule="evenodd" clip-rule="evenodd" d="M387.579 40.3865C388.038 40.3316 388.48 40.2918 388.901 40.2686L385.911 30.6056C385.727 30.0131 385.782 29.3719 386.066 28.8199C386.349 28.2679 386.838 27.8493 387.427 27.654C387.717 27.5631 388.023 27.5305 388.326 27.5581C388.629 27.5857 388.924 27.6729 389.193 27.8148C389.462 27.9566 389.701 28.1502 389.895 28.3846C390.09 28.6189 390.236 28.8894 390.325 29.1804L395.624 46.3058C395.759 46.7418 395.764 47.204 395.644 47.6375C396.378 50.0403 396.979 52.4989 397.333 54.0389L400.006 52.459C414.101 74.358 435.975 104.705 460.405 124.909C466.065 129.592 468.29 131.296 471.971 133.533C474.932 135.339 475.152 142.692 472.149 147.878C469.333 152.742 463.565 155.042 459.641 153.569C458.575 153.17 458.051 153.465 457.517 153.767C456.569 154.302 455.588 154.855 451.501 151.598C429.289 133.835 403.654 101.031 381.027 63.6803C378.887 61.3881 374.764 56.3786 373.532 50.6778L369.022 36.095C368.839 35.5041 368.895 34.8652 369.179 34.3154C369.462 33.7656 369.949 33.3487 370.536 33.1543C370.826 33.0635 371.131 33.031 371.434 33.0586C371.737 33.0862 372.031 33.1734 372.3 33.3152C372.569 33.457 372.807 33.6506 373.001 33.8849C373.195 34.1191 373.34 34.3894 373.429 34.6802L376.241 43.7707C376.601 43.5849 376.985 43.4013 377.388 43.2213L373.996 32.2618C373.814 31.6701 373.87 31.0304 374.153 30.4797C374.436 29.929 374.924 29.5111 375.511 29.3157C375.801 29.2241 376.107 29.1909 376.411 29.2182C376.714 29.2454 377.009 29.3325 377.278 29.4744C377.548 29.6163 377.787 29.8103 377.981 30.045C378.175 30.2798 378.321 30.5507 378.41 30.8421L381.751 41.6358C382.166 41.5129 382.584 41.3959 383.003 41.286L378.95 28.1819C378.766 27.5903 378.821 26.9499 379.104 26.3988C379.388 25.8477 379.876 25.43 380.464 25.2358C380.755 25.1442 381.061 25.111 381.364 25.1383C381.667 25.1655 381.962 25.2526 382.232 25.3945C382.501 25.5364 382.74 25.7303 382.934 25.9651C383.129 26.1998 383.274 26.4708 383.363 26.7622L387.579 40.3865Z" fill="url(#paint8_linear_46_3398)"/>
<path d="M453.538 434.238C453.538 434.238 452.484 441.733 447.231 443.272C441.978 444.811 427.251 445.052 432.112 450.508C434.903 453.64 449.769 453.543 453.909 454.021C458.048 454.499 461.724 456.78 465.128 454.318C468.87 451.613 467.262 435.822 467.262 435.822C467.262 435.822 463.474 437.298 460.268 436.845C455.651 436.184 453.538 434.238 453.538 434.238Z" fill="#2F1A31"/>
<path d="M511.045 440.875C511.045 440.875 509.992 448.365 504.738 449.909C499.484 451.454 484.758 451.689 489.624 457.145C492.415 460.278 507.282 460.175 511.421 460.653C515.561 461.131 519.237 463.412 522.634 460.955C526.376 458.249 524.769 442.459 524.769 442.459C524.769 442.459 520.981 443.934 517.776 443.476C513.164 442.822 511.045 440.875 511.045 440.875Z" fill="#2F1A31"/>
<path d="M512.497 152.63C512.497 152.63 504.463 131.553 477.905 133.343C465.358 134.179 458.69 127.866 453.058 150.498C447.997 170.818 450.369 198.415 448.817 238.703C448.817 238.703 472.767 197.392 524.364 218.409C524.364 218.409 528.931 198.763 523.216 164.322C521.614 154.58 515.243 159.372 512.497 152.63Z" fill="#383162"/>
<path d="M535.093 143.226L512.624 163.588C512.624 163.588 464.183 180.037 451.815 156.425C442.777 139.151 457.455 122.397 457.455 122.397C457.455 122.397 468.398 130.218 482.575 131.344C486.516 131.66 496.403 133.422 500.278 133.736C527.295 135.946 535.093 143.226 535.093 143.226Z" fill="#383162"/>
<path d="M535.217 143.395C537.07 145.682 534.309 151.261 526.444 157.432C518.578 163.603 515 165.757 512.349 161.981C510.593 159.483 511.901 150.166 519.838 145.106C526.042 141.183 533.898 141.762 535.217 143.395Z" fill="#2F1A31"/>
<path fill-rule="evenodd" clip-rule="evenodd" d="M521.935 174.711C540.027 200.908 552.978 236.173 560.656 261.145L560.732 261.125L556.511 266.86C556.076 267.463 555.891 268.211 555.997 268.947C556.102 269.683 556.489 270.349 557.075 270.806L557.733 271.303C558.026 271.533 558.364 271.701 558.724 271.796C559.085 271.892 559.461 271.913 559.83 271.859C560.199 271.804 560.553 271.675 560.871 271.48C561.189 271.285 561.463 271.026 561.678 270.722L563.233 268.611L563.744 286.236C563.759 286.853 564.019 287.439 564.465 287.864C564.911 288.29 565.508 288.521 566.125 288.507C566.742 288.478 567.323 288.208 567.742 287.754C568.162 287.301 568.386 286.7 568.366 286.083L568.076 275.944C568.486 276.037 568.921 276.12 569.376 276.194L569.791 290.493C569.798 290.799 569.865 291.1 569.988 291.38C570.112 291.659 570.289 291.912 570.51 292.123C570.732 292.334 570.992 292.499 571.277 292.609C571.562 292.719 571.866 292.771 572.172 292.764C572.789 292.735 573.37 292.465 573.789 292.011C574.209 291.558 574.433 290.957 574.413 290.339L574.018 276.587C574.45 276.596 574.883 276.598 575.314 276.594L575.642 287.904C575.658 288.521 575.917 289.106 576.363 289.532C576.81 289.958 577.407 290.189 578.023 290.174C578.641 290.147 579.223 289.878 579.644 289.424C580.064 288.97 580.289 288.369 580.27 287.751L579.936 276.267C580.372 276.204 580.79 276.133 581.185 276.053L581.459 285.61C581.48 286.222 581.742 286.801 582.187 287.221C582.632 287.64 583.225 287.868 583.837 287.852C584.454 287.825 585.035 287.556 585.454 287.103C585.873 286.65 586.098 286.05 586.078 285.433L585.633 270.064C585.936 264.223 583.302 258.267 581.875 255.503C570.099 213.316 556.383 181.607 539.782 158.384C535.002 151.701 532.864 149.192 530.311 147.312C526.916 144.797 520.78 145.442 516.777 149.353C512.506 153.523 510.751 160.665 513.116 163.216C516.058 166.388 517.743 168.64 521.935 174.711Z" fill="url(#paint9_linear_46_3398)"/>
<g opacity="0.5">
<path d="M554.896 207.642C555.41 207.705 555.932 207.64 556.414 207.451C556.829 207.28 557.205 207.026 557.518 206.704C557.831 206.383 558.076 206.001 558.237 205.582C558.88 204.093 558.794 202.055 558.013 200.13C556.724 196.899 553.956 195.049 551.751 195.915C551.337 196.087 550.962 196.342 550.649 196.663C550.336 196.984 550.091 197.365 549.928 197.783C549.291 199.273 549.377 201.311 550.152 203.236C551.175 205.749 553.065 207.43 554.896 207.642ZM553.121 196.86C554.526 197.022 556.119 198.492 556.955 200.556C557.624 202.202 557.709 203.914 557.187 205.129C556.973 205.689 556.547 206.143 556 206.389C554.438 207.001 552.24 205.361 551.211 202.804C550.542 201.158 550.456 199.451 550.979 198.231C551.085 197.954 551.245 197.7 551.45 197.485C551.654 197.27 551.899 197.097 552.171 196.978C552.473 196.859 552.8 196.818 553.121 196.86V196.86Z" fill="#E08B65"/>
</g>
<path d="M495.074 126.401L495.537 117.152L495.675 114.469L496.472 98.6844L490.805 112.593L487.41 120.937C487.41 120.937 484.571 128.775 482.866 130.158C480.421 132.143 479.489 134.885 483.91 136.282C489.317 138.015 494.513 136.73 499.545 133.652C499.513 133.687 494.675 131.15 495.074 126.401Z" fill="#F7B686"/>
<path d="M486.997 91.5863C485.542 93.945 484.591 96.5795 484.203 99.324C483.53 103.958 491.661 94.9628 491.661 94.9628L486.997 91.5863Z" fill="#56335B"/>
<path d="M483.24 100.378C487.324 92.4509 495.876 88.7869 502.341 92.1996C508.807 95.6122 510.743 104.81 506.659 112.737C502.574 120.664 494.028 124.329 487.563 120.916C481.097 117.503 479.161 108.311 483.24 100.378Z" fill="#F7B686"/>
<path d="M494.529 105.677C494.504 105.643 494.486 105.604 494.478 105.563C494.469 105.522 494.47 105.479 494.479 105.438C494.499 105.37 494.545 105.312 494.607 105.277C494.669 105.242 494.742 105.232 494.811 105.249C495.444 105.388 496.013 105.733 496.428 106.23C496.843 106.728 497.081 107.35 497.104 107.997C497.112 108.068 497.093 108.139 497.049 108.196C497.005 108.252 496.941 108.288 496.87 108.297C496.8 108.299 496.731 108.276 496.676 108.232C496.622 108.188 496.584 108.127 496.571 108.058C496.207 107.107 495.538 106.304 494.668 105.776C494.611 105.76 494.563 105.725 494.529 105.677V105.677Z" fill="#060633"/>
<path d="M494.421 109.357C494.052 109.869 493.444 110.098 493.065 109.827C492.878 109.633 492.773 109.375 492.77 109.106C492.767 108.837 492.867 108.576 493.049 108.378C493.418 107.867 494.027 107.637 494.405 107.908C494.592 108.103 494.697 108.36 494.7 108.63C494.703 108.899 494.603 109.159 494.421 109.357V109.357Z" fill="#060633"/>
<path d="M485.498 101.492C485.468 101.473 485.443 101.446 485.428 101.414C485.412 101.382 485.405 101.346 485.409 101.31C485.409 101.242 485.43 101.176 485.469 101.121C485.508 101.066 485.563 101.025 485.627 101.003C485.869 100.91 486.128 100.87 486.387 100.883C486.647 100.897 486.9 100.964 487.131 101.081C487.363 101.198 487.568 101.362 487.732 101.562C487.897 101.763 488.018 101.996 488.088 102.246C488.106 102.311 488.104 102.38 488.082 102.444C488.059 102.507 488.018 102.563 487.963 102.603C487.941 102.62 487.915 102.632 487.887 102.638C487.86 102.644 487.831 102.644 487.803 102.638C487.776 102.632 487.75 102.621 487.727 102.604C487.704 102.587 487.685 102.566 487.671 102.541C487.425 102.232 487.115 101.98 486.763 101.802C486.411 101.623 486.024 101.523 485.63 101.507C485.586 101.519 485.539 101.513 485.498 101.492V101.492Z" fill="#060633"/>
<path d="M486.844 104.956C486.699 105.588 486.22 105.993 485.761 105.94C485.302 105.887 485.061 105.238 485.206 104.601C485.352 103.963 485.83 103.564 486.29 103.617C486.749 103.67 486.99 104.319 486.844 104.956Z" fill="#060633"/>
<path d="M516.349 111.831C516.349 111.831 508.92 119.4 502.799 117.901C502.799 117.901 510.046 112.717 501.541 104.795C501.558 104.797 511.292 106.724 516.349 111.831Z" fill="url(#paint10_linear_46_3398)"/>
<path d="M506.247 113.798C505.548 113.985 504.803 113.888 504.175 113.529C503.546 113.17 503.084 112.578 502.889 111.881C502.829 111.524 502.839 111.158 502.92 110.805C503.001 110.452 503.151 110.119 503.361 109.824C503.571 109.529 503.837 109.278 504.144 109.086C504.451 108.894 504.793 108.765 505.15 108.705C505.849 108.518 506.593 108.614 507.222 108.972C507.85 109.33 508.313 109.921 508.509 110.617C508.624 111.338 508.451 112.075 508.028 112.67C507.605 113.265 506.965 113.67 506.247 113.798V113.798Z" fill="#F7B686"/>
<path d="M501.557 104.796C501.557 104.796 499.606 112.725 497.553 113.608C495.501 114.491 485.188 111.383 481.142 107.795C480.225 110.143 480.17 112.74 480.986 115.125C481.802 117.51 483.437 119.528 485.601 120.821C487.095 121.68 488.727 122.275 490.423 122.581V122.581C493.936 123.208 497.638 123.003 500.097 120.371C500.854 119.577 501.749 113.311 501.749 113.311C501.749 113.311 502.528 109.726 505.127 108.673C505.151 108.703 503.64 105.807 501.557 104.796Z" fill="url(#paint11_linear_46_3398)"/>
<path d="M482.636 111.465C485.051 113.099 487.716 114.328 490.527 115.104C490.527 115.104 488.471 118.852 484.478 116.484C482.122 115.098 482.636 111.465 482.636 111.465Z" fill="#F2FAFF"/>
<path d="M505.762 105.858C505.762 105.858 479.196 100.126 473.203 91.4682C467.209 82.8106 488.342 87.855 488.342 87.855C488.342 87.855 503.958 105.406 505.762 105.858Z" fill="#E28569"/>
<path d="M488.342 87.8561C488.342 87.8561 497.055 79.0444 509.099 83.9102C521.143 88.776 525.677 99.804 516.348 111.832C509.398 109.375 503.19 105.184 498.311 99.6555C490.135 90.4189 488.342 87.8561 488.342 87.8561Z" fill="#D16B54"/>
<path d="M395.545 30.318C395.44 30.2287 395.353 30.1195 395.291 29.9966C395.228 29.8738 395.19 29.7398 395.179 29.6023C395.168 29.4648 395.185 29.3265 395.227 29.1953C395.27 29.0642 395.338 28.9427 395.428 28.8379L416.512 4.24124C416.696 4.03097 416.954 3.90014 417.233 3.87615C417.511 3.85217 417.788 3.93689 418.005 4.11258V4.11258C418.111 4.20152 418.198 4.31058 418.261 4.43341C418.324 4.55625 418.362 4.6904 418.373 4.82811C418.384 4.96582 418.367 5.10431 418.324 5.23557C418.281 5.36682 418.212 5.48822 418.122 5.59269L397.018 30.198C396.834 30.4013 396.579 30.5269 396.305 30.5492C396.032 30.5715 395.76 30.4888 395.545 30.318V30.318Z" fill="#2F1A31"/>
<path d="M374.622 54.7275C374.044 54.2405 373.569 53.6435 373.224 52.9712C372.879 52.299 372.671 51.5648 372.612 50.8115C372.553 50.0581 372.644 49.3005 372.881 48.5826C373.117 47.8648 373.494 47.2009 373.989 46.6298L393.396 23.9836C394.397 22.8167 395.815 22.0877 397.346 21.9527C398.877 21.8178 400.4 22.2875 401.589 23.2615V23.2615C402.166 23.749 402.641 24.3461 402.987 25.0183C403.332 25.6905 403.54 26.4245 403.599 27.1778C403.659 27.9312 403.568 28.6888 403.333 29.4071C403.098 30.1253 402.722 30.7898 402.229 31.3621L382.816 54.0105C381.815 55.1773 380.396 55.9058 378.865 56.0398C377.333 56.1739 375.81 55.7028 374.622 54.7275V54.7275Z" fill="#E28569"/>
<path d="M402.053 55.617C402.053 55.617 400.543 49.0179 402.051 44.8294C403.56 40.6408 399.582 31.2735 397.998 28.003C396.209 24.2986 394.164 25.6036 393.754 28.1506C393.437 30.1208 394.676 32.6917 394.08 35.2117C392.718 41.0082 391.863 39.2519 389.229 45.6998C386.595 52.1477 386.407 55.125 389.384 57.0762C392.362 59.0274 402.053 55.617 402.053 55.617Z" fill="url(#paint12_linear_46_3398)"/>
<path fill-rule="evenodd" clip-rule="evenodd" d="M501.363 177.918C501.035 170.053 500.783 164.031 495.284 160.425C498.04 147.39 508.654 134.613 508.654 134.613C507.629 132.932 503.076 133.97 503.076 133.97C495.718 137.298 489.861 151.905 487.805 157.639L487.773 157.632C484.932 157.065 482.202 156.479 479.598 155.919L479.598 155.919L479.598 155.919C474.302 154.781 469.526 153.755 465.391 153.233C467.693 148.073 473.762 135.336 479.386 130.976C478.327 130.478 477.165 130.241 475.996 130.284C474.827 130.326 473.685 130.647 472.665 131.22C472.665 131.22 462.465 141.048 459.187 152.893C456.397 153.014 454.083 153.621 452.314 154.931C446.531 159.246 438.428 220.343 437.803 256.519C437.784 257.116 437.765 257.721 437.747 258.335C437.741 258.473 437.735 258.608 437.73 258.74C437.706 259.269 437.685 259.747 437.679 260.174C437.677 260.29 437.68 260.405 437.688 260.518C437.319 275.016 437.367 293.787 438.461 316.769C440.541 361.151 443.928 406.028 445.621 427.549C446.234 435.247 451.833 441.47 459.191 442.624L463.142 443.241C471.093 444.491 478.382 438.27 478.754 429.915L482.114 354.609L502.214 438.071C503.671 445.95 509.817 451.943 517.484 452.961L520.829 453.408C528.72 454.457 535.625 447.726 535.114 439.479L521.817 263.721L524.55 215.216C524.55 215.216 504.092 203.564 502.077 187.754C501.627 184.226 501.49 180.936 501.363 177.918L501.363 177.918Z" fill="url(#paint13_linear_46_3398)"/>
<path d="M482.119 356.642L483.062 356.534L476.216 295.454C474.512 286.687 469.624 278.862 462.495 273.487L461.93 274.248C468.857 279.478 473.61 287.081 475.279 295.601L482.119 356.642Z" fill="#020202"/>
<path d="M490.713 164.046C490.751 163.744 490.729 163.438 490.648 163.145C490.567 162.851 490.429 162.577 490.243 162.337C490.056 162.097 489.823 161.896 489.559 161.746C489.294 161.597 489.002 161.5 488.701 161.463C487.438 161.318 486.579 162.327 486.147 163.519C485.551 165.185 486.902 165.957 488.165 166.102C488.468 166.135 488.773 166.108 489.065 166.022C489.357 165.936 489.629 165.794 489.866 165.603C490.102 165.412 490.299 165.176 490.444 164.909C490.59 164.642 490.681 164.349 490.713 164.046V164.046Z" fill="#2F1A31"/>
<path d="M464.836 157.956C464.874 157.654 464.852 157.348 464.771 157.055C464.691 156.761 464.553 156.487 464.366 156.247C464.179 156.007 463.947 155.807 463.682 155.657C463.417 155.507 463.126 155.411 462.824 155.374C461.561 155.228 460.702 156.237 460.271 157.429C459.679 159.096 461.026 159.861 462.289 160.007C462.591 160.04 462.897 160.014 463.188 159.929C463.48 159.844 463.752 159.702 463.989 159.511C464.226 159.321 464.422 159.085 464.568 158.818C464.713 158.551 464.805 158.258 464.836 157.956V157.956Z" fill="#2F1A31"/>
</g>
<defs>
<linearGradient id="paint0_linear_46_3398" x1="59.8474" y1="165.049" x2="59.8474" y2="523.877" gradientUnits="userSpaceOnUse">
<stop stop-color="#FFC79D"/>
<stop offset="1" stop-color="#F79A86"/>
</linearGradient>
<linearGradient id="paint1_linear_46_3398" x1="115.618" y1="355.715" x2="115.618" y2="867.143" gradientUnits="userSpaceOnUse">
<stop stop-color="#CA0030"/>
<stop offset="1" stop-color="#530014"/>
</linearGradient>
<linearGradient id="paint2_linear_46_3398" x1="219.668" y1="402.406" x2="219.668" y2="875.32" gradientUnits="userSpaceOnUse">
<stop stop-color="#CA0030"/>
<stop offset="1" stop-color="#530014"/>
</linearGradient>
<linearGradient id="paint3_linear_46_3398" x1="161.831" y1="122.992" x2="161.831" y2="436.652" gradientUnits="userSpaceOnUse">
<stop stop-color="#CA0030"/>
<stop offset="1" stop-color="#530014"/>
</linearGradient>
<linearGradient id="paint4_linear_46_3398" x1="159.716" y1="57.5061" x2="159.716" y2="140.625" gradientUnits="userSpaceOnUse">
<stop stop-color="#FFC79D"/>
<stop offset="1" stop-color="#F79A86"/>
</linearGradient>
<linearGradient id="paint5_linear_46_3398" x1="142.185" y1="24.8809" x2="142.185" y2="100.576" gradientUnits="userSpaceOnUse">
<stop stop-color="#FFC79D"/>
<stop offset="1" stop-color="#F79A86"/>
</linearGradient>
<linearGradient id="paint6_linear_46_3398" x1="162.773" y1="11.8027" x2="162.773" y2="116.757" gradientUnits="userSpaceOnUse">
<stop stop-color="#E28569"/>
<stop offset="1" stop-color="#B7715E"/>
</linearGradient>
<linearGradient id="paint7_linear_46_3398" x1="255.83" y1="153.772" x2="255.83" y2="387.234" gradientUnits="userSpaceOnUse">
<stop stop-color="#FFC79D"/>
<stop offset="1" stop-color="#F79A86"/>
</linearGradient>
<linearGradient id="paint8_linear_46_3398" x1="432.958" y1="56.2622" x2="422.111" y2="150.248" gradientUnits="userSpaceOnUse">
<stop stop-color="#FFC79D"/>
<stop offset="1" stop-color="#F79A86"/>
</linearGradient>
<linearGradient id="paint9_linear_46_3398" x1="557.492" y1="149.463" x2="541.36" y2="289.23" gradientUnits="userSpaceOnUse">
<stop stop-color="#FFC79D"/>
<stop offset="1" stop-color="#F79A86"/>
</linearGradient>
<linearGradient id="paint10_linear_46_3398" x1="509.248" y1="105.685" x2="507.766" y2="118.527" gradientUnits="userSpaceOnUse">
<stop stop-color="#E28569"/>
<stop offset="1" stop-color="#B7715E"/>
</linearGradient>
<linearGradient id="paint11_linear_46_3398" x1="493.462" y1="103.862" x2="491.286" y2="122.721" gradientUnits="userSpaceOnUse">
<stop stop-color="#E28569"/>
<stop offset="1" stop-color="#B7715E"/>
</linearGradient>
<linearGradient id="paint12_linear_46_3398" x1="397.88" y1="25.9531" x2="394.184" y2="57.9754" gradientUnits="userSpaceOnUse">
<stop stop-color="#FFC79D"/>
<stop offset="1" stop-color="#F79A86"/>
</linearGradient>
<linearGradient id="paint13_linear_46_3398" x1="510.217" y1="134.099" x2="473.986" y2="448.003" gradientUnits="userSpaceOnUse">
<stop offset="0.390625" stop-color="#4425FF"/>
<stop offset="1" stop-color="#383162"/>
</linearGradient>
<clipPath id="clip0_46_3398">
<rect width="585" height="463" fill="white"/>
</clipPath>
<clipPath id="clip1_46_3398">
<rect width="365" height="455" fill="white" transform="translate(-21)"/>
</clipPath>
</defs>
</svg>
